<svg width="20" height="26" viewBox="0 0 20 26" fill="none" xmlns="http://www.w3.org/2000/svg">
<path d="M20 12.6703C20 12.7884 19.9598 12.8918 19.8795 12.9804C19.7992 13.069 19.7189 13.1428 19.6386 13.2019L3.61446 25.0747C3.53414 25.1338 3.41365 25.1781 3.25301 25.2077C3.09237 25.2372 2.93173 25.252 2.77108 25.252C2.69076 25.252 2.57028 25.2372 2.40964 25.2077C2.249 25.1781 2.12851 25.1338 2.04819 25.0747L0.361446 23.7457C0.200803 23.6866 0.100402 23.6128 0.060241 23.5242C0.0200803 23.4356 0 23.3322 0 23.2141C0 23.0959 0.0200803 22.9778 0.060241 22.8597C0.100402 22.7415 0.200803 22.6529 0.361446 22.5939L13.8554 12.6703L0.361446 2.74669C0.200803 2.62855 0.100402 2.52518 0.060241 2.43658C0.0200803 2.34797 0 2.2446 0 2.12647C0 2.00833 0.0200803 1.90496 0.060241 1.81635C0.100402 1.72775 0.200803 1.62438 0.361446 1.50624L2.04819 0.265795C2.12851 0.206726 2.249 0.147657 2.40964 0.0885868C2.57028 0.0295181 2.69076 -1.52588e-05 2.77108 -1.52588e-05C2.93173 -1.52588e-05 3.09237 0.0295181 3.25301 0.0885868C3.41365 0.147657 3.53414 0.206726 3.61446 0.265795L19.6386 12.05C19.7189 12.1682 19.7992 12.2716 19.8795 12.3602C19.9598 12.4488 20 12.5521 20 12.6703Z" fill="white"/>
</svg>
