<svg width="20" height="26" viewBox="0 0 20 26" fill="none" xmlns="http://www.w3.org/2000/svg">
<path d="M0 12.6703C0 12.7884 0.0401592 12.8918 0.120481 12.9804C0.200802 13.069 0.281124 13.1428 0.361444 13.2019L16.3855 25.0747C16.4659 25.1338 16.5863 25.1781 16.747 25.2077C16.9076 25.2372 17.0683 25.252 17.2289 25.252C17.3092 25.252 17.4297 25.2372 17.5904 25.2077C17.751 25.1781 17.8715 25.1338 17.9518 25.0747L19.6386 23.7457C19.7992 23.6866 19.8996 23.6128 19.9398 23.5242C19.9799 23.4356 20 23.3322 20 23.2141C20 23.0959 19.9799 22.9778 19.9398 22.8597C19.8996 22.7415 19.7992 22.6529 19.6386 22.5939L6.14458 12.6703L19.6386 2.74669C19.7992 2.62855 19.8996 2.52518 19.9398 2.43658C19.9799 2.34797 20 2.2446 20 2.12647C20 2.00833 19.9799 1.90496 19.9398 1.81635C19.8996 1.72775 19.7992 1.62438 19.6386 1.50624L17.9518 0.265795C17.8715 0.206726 17.751 0.147657 17.5904 0.0885868C17.4297 0.0295181 17.3092 -1.52588e-05 17.2289 -1.52588e-05C17.0683 -1.52588e-05 16.9076 0.0295181 16.747 0.0885868C16.5863 0.147657 16.4659 0.206726 16.3855 0.265795L0.361444 12.05C0.281124 12.1682 0.200802 12.2716 0.120481 12.3602C0.0401592 12.4488 0 12.5521 0 12.6703Z" fill="white"/>
</svg>
