<?xml version="1.0" encoding="UTF-8"?>
<svg version="1.1" xmlns="http://www.w3.org/2000/svg" width="512" height="512">
<path d="M0 0 C1.63309093 -0.00417981 3.26617895 -0.00966086 4.89926165 -0.01631981 C9.35827209 -0.03070842 13.81709665 -0.0265504 18.27611697 -0.019153 C23.0962963 -0.01440722 27.91643623 -0.02694366 32.73660278 -0.03717041 C42.16887874 -0.05433651 51.60108802 -0.05520291 61.03337554 -0.04995751 C68.70316225 -0.04591028 76.3729293 -0.04736593 84.04271507 -0.05270576 C85.68234457 -0.0538284 85.68234457 -0.0538284 87.35509789 -0.05497371 C89.57596551 -0.05650525 91.79683314 -0.05804359 94.01770075 -0.05958868 C114.82887802 -0.07330595 135.64001767 -0.06788159 156.45119407 -0.05640347 C175.47132249 -0.04647324 194.4913536 -0.05940951 213.51146702 -0.08333766 C233.06227401 -0.10774727 252.61303572 -0.11733186 272.16385764 -0.11068493 C283.13174659 -0.10719668 294.09956073 -0.10939867 305.06743813 -0.12693596 C314.40469083 -0.14168127 323.74181605 -0.142263 333.07906631 -0.12486505 C337.83843908 -0.11637164 342.59758433 -0.11416479 347.35694504 -0.1295166 C351.7225472 -0.14342339 356.08772823 -0.13852421 360.4533064 -0.11927737 C362.02386249 -0.11553531 363.59445281 -0.11838696 365.16497824 -0.12888902 C385.88154904 -0.25745587 403.33778018 5.91590528 418.62419128 20.38768005 C423.83434634 25.72855585 427.53892735 31.67153485 430.93669128 38.26268005 C431.42528625 39.19769348 431.42528625 39.19769348 431.92375183 40.15159607 C437.3747468 51.2761624 438.06296219 62.58622921 438.01187134 74.76348877 C438.01605115 76.3965797 438.02153219 78.02966772 438.02819115 79.66275042 C438.04257976 84.12176085 438.03842174 88.58058542 438.03102434 93.03960574 C438.02627856 97.85978507 438.038815 102.679925 438.04904175 107.50009155 C438.06620785 116.93236751 438.06707425 126.36457679 438.06182884 135.79686431 C438.05778162 143.46665102 438.05923727 151.13641807 438.0645771 158.80620384 C438.06532552 159.89929017 438.06607395 160.9923765 438.06684505 162.11858666 C438.06837658 164.33945428 438.06991493 166.56032191 438.07146002 168.78118952 C438.08517729 189.59236679 438.07975293 210.40350644 438.0682748 231.21468284 C438.05834458 250.23481126 438.07128085 269.25484237 438.095209 288.27495579 C438.11961861 307.82576278 438.1292032 327.37652449 438.12255627 346.92734641 C438.11906802 357.89523536 438.12127001 368.8630495 438.1388073 379.8309269 C438.15355261 389.1681796 438.15413434 398.50530482 438.13673639 407.84255508 C438.12824298 412.60192785 438.12603613 417.3610731 438.14138794 422.12043381 C438.15529472 426.48603597 438.15039554 430.851217 438.1311487 435.21679517 C438.12740664 436.78735126 438.1302583 438.35794158 438.14076035 439.92846701 C438.27271023 461.19016003 431.7270297 478.93864477 416.62419128 494.38768005 C400.94936709 508.34471529 383.76415663 512.86143599 363.24838257 512.77536011 C361.61529164 512.77953992 359.98220362 512.78502096 358.34912091 512.79167992 C353.89011048 512.80606853 349.43128592 512.80191051 344.9722656 512.79451311 C340.15208627 512.78976733 335.33194634 512.80230377 330.51177979 512.81253052 C321.07950383 512.82969662 311.64729455 512.83056302 302.21500703 512.82531761 C294.54522032 512.82127039 286.87545327 512.82272604 279.2056675 512.82806587 C277.566038 512.82918851 277.566038 512.82918851 275.89328468 512.83033382 C273.67241705 512.83186535 271.45154943 512.8334037 269.23068181 512.83494879 C248.41950455 512.84866606 227.6083649 512.8432417 206.7971885 512.83176357 C187.77706008 512.82183335 168.75702896 512.83476962 149.73691555 512.85869776 C130.18610856 512.88310738 110.63534685 512.89269197 91.08452493 512.88604504 C80.11663598 512.88255679 69.14882184 512.88475878 58.18094444 512.90229607 C48.84369174 512.91704138 39.50656652 512.91762311 30.16931625 512.90022516 C25.40994349 512.89173174 20.65079824 512.8895249 15.89143753 512.90487671 C11.52583537 512.91878349 7.16065434 512.91388431 2.79507617 512.89463747 C1.22452008 512.89089541 -0.34607024 512.89374707 -1.91659568 512.90424912 C-23.17828869 513.036199 -40.92677344 506.49051847 -56.37580872 491.38768005 C-70.33284395 475.71285586 -74.84956465 458.5276454 -74.76348877 438.01187134 C-74.76766858 436.37878041 -74.77314963 434.74569239 -74.77980858 433.11260968 C-74.79419719 428.65359925 -74.79003917 424.19477469 -74.78264177 419.73575437 C-74.77789599 414.91557504 -74.79043243 410.0954351 -74.80065918 405.27526855 C-74.81782528 395.8429926 -74.81869168 386.41078332 -74.81344628 376.9784958 C-74.80939905 369.30870909 -74.8108547 361.63894204 -74.81619453 353.96915627 C-74.81694296 352.87606994 -74.81769138 351.78298361 -74.81846248 350.65677345 C-74.81999402 348.43590582 -74.82153236 346.2150382 -74.82307745 343.99417058 C-74.83679472 323.18299331 -74.83137036 302.37185367 -74.81989224 281.56067727 C-74.80996201 262.54054885 -74.82289828 243.52051773 -74.84682643 224.50040432 C-74.87123604 204.94959733 -74.88082063 185.39883562 -74.8741737 165.8480137 C-74.87068545 154.88012475 -74.87288744 143.91231061 -74.89042473 132.94443321 C-74.90517004 123.60718051 -74.90575177 114.27005529 -74.88835382 104.93280502 C-74.87986041 100.17343226 -74.87765356 95.41428701 -74.89300537 90.6549263 C-74.90691216 86.28932414 -74.90201297 81.92414311 -74.88276614 77.55856494 C-74.87902408 75.98800885 -74.88187573 74.41741853 -74.89237779 72.84689309 C-75.02094464 52.1303223 -68.84758349 34.67409116 -54.37580872 19.38768005 C-49.03493292 14.17752499 -43.09195392 10.47294399 -36.50080872 7.07518005 C-35.87746643 6.74945007 -35.25412415 6.42372009 -34.6118927 6.08811951 C-23.48732637 0.63712453 -12.17725956 -0.05109085 0 0 Z " fill="#1D70FA" transform="translate(74.37580871582031,-0.3876800537109375)"/>
<path d="M0 0 C17.655 -0.0825 35.31 -0.165 53.5 -0.25 C61.81735352 -0.30462402 61.81735352 -0.30462402 70.30273438 -0.36035156 C77.14941406 -0.37841797 77.14941406 -0.37841797 80.3692627 -0.3817749 C82.58609238 -0.38785933 84.80291004 -0.40180537 87.01965332 -0.42230225 C107.3996612 -0.60108687 128.13324514 0.56571589 144 15.1875 C154.25131437 26.29946576 155.70615829 38.13958347 155.18359375 52.50488281 C154.53981748 61.25407621 151.15005423 69.00464947 146 76 C145.443125 76.845625 144.88625 77.69125 144.3125 78.5625 C140.29566694 82.79645917 135.22913939 86.38543031 130 89 C131.45019531 89.70962891 131.45019531 89.70962891 132.9296875 90.43359375 C147.08892548 97.54237698 157.31857953 105.76232702 163.1640625 121.04296875 C164.63470517 126.62590745 164.36871348 132.45733462 164.375 138.1875 C164.39949219 139.34314453 164.42398438 140.49878906 164.44921875 141.68945312 C164.49787185 156.1313151 159.67743996 167.04120164 150 177.5625 C144.37957891 182.98388425 137.91686949 186.50181313 131 190 C130.16726562 190.4228125 129.33453125 190.845625 128.4765625 191.28125 C113.24366569 198.14385197 95.89479366 197.41197629 79.58984375 197.29296875 C77.54203538 197.28854518 75.49422359 197.2854925 73.44641113 197.28381348 C65.94338825 197.26823219 58.44043849 197.2263492 50.9375 197.1875 C34.128125 197.125625 17.31875 197.06375 0 197 C0 131.99 0 66.98 0 0 Z " fill="#FDFEFE" transform="translate(96,156)"/>
<path d="M0 0 C1.64838867 -0.01836914 1.64838867 -0.01836914 3.33007812 -0.03710938 C22.20789976 -0.07088008 38.56700813 7.16060119 52.1875 20.125 C70.24790004 39.3969992 73.8125 59.50730532 73.8125 85.1875 C39.4925 85.1875 5.1725 85.1875 -30.1875 85.1875 C-28.21252499 97.03735007 -26.23513881 107.20394602 -16.35546875 114.78515625 C-7.28363086 120.65324599 2.2286091 121.61031055 12.8125 120.1875 C20.13387633 118.27580729 26.77485883 114.92720852 31.8125 109.1875 C32.04686768 108.61346436 32.28123535 108.03942871 32.52270508 107.44799805 C33.7041644 104.99920582 34.58412171 103.78882485 36.8125 102.1875 C42.42988489 101.27854566 47.95618525 101.53021421 53.625 101.75 C55.1919882 101.78513136 56.75905152 101.81706722 58.32617188 101.84570312 C62.15680607 101.92265673 65.98383034 102.04332681 69.8125 102.1875 C67.10296128 116.42453214 59.70472814 128.39285968 48.11328125 137.25 C45.40527213 139.04246253 42.67091666 140.6474222 39.8125 142.1875 C38.51892578 142.89519531 38.51892578 142.89519531 37.19921875 143.6171875 C19.88853468 152.28535226 -3.05762678 152.87666167 -21.4140625 147.1875 C-39.04664435 140.91079639 -52.8383161 129.2067293 -61.5390625 112.66796875 C-70.52006092 93.70571853 -73.98647143 72.19830686 -67.578125 51.77734375 C-63.31654542 40.77624365 -58.19230223 30.96167995 -50.1875 22.1875 C-49.67058594 21.5790625 -49.15367187 20.970625 -48.62109375 20.34375 C-36.08046695 6.51448736 -18.19415253 0.01048654 0 0 Z " fill="#FDFEFE" transform="translate(342.1875,205.8125)"/>
<path d="M0 0 C12.4678125 -0.12375 12.4678125 -0.12375 25.1875 -0.25 C27.78391357 -0.28641602 30.38032715 -0.32283203 33.05541992 -0.36035156 C61.01844572 -0.59010483 61.01844572 -0.59010483 71.34375 8.26953125 C77.35863331 14.55394943 78.69304257 20.61473532 78.51953125 29.18481445 C78.10828856 36.94977416 75.95398735 41.31291868 70.5625 46.75 C61.82560095 53.6832121 50.90380686 54.59504555 40.13671875 54.390625 C39.10792603 54.38659668 38.0791333 54.38256836 37.01916504 54.37841797 C33.24175723 54.35777258 29.46460724 54.30193163 25.6875 54.25 C17.210625 54.1675 8.73375 54.085 0 54 C0 36.18 0 18.36 0 0 Z " fill="#1F71FA" transform="translate(139,265)"/>
<path d="M0 0 C7.06243272 -0.09221893 14.12274592 -0.17174398 21.18530273 -0.21972656 C23.58381256 -0.23974509 25.98227418 -0.26696833 28.38061523 -0.30175781 C31.84370882 -0.35070613 35.3061528 -0.37306731 38.76953125 -0.390625 C39.82831985 -0.41127014 40.88710846 -0.43191528 41.97798157 -0.45318604 C49.92258207 -0.4555387 58.07056139 0.53783254 64.24104309 5.97454834 C69.51390516 11.65701785 71.54500542 16.5502766 71.3828125 24.30078125 C70.54205305 30.22899332 67.76376894 35.23623106 63.5625 39.4375 C54.86437775 44.74123308 47.66252432 45.147081 37.6953125 45.09765625 C36.61619598 45.0962413 35.53707947 45.09482635 34.42526245 45.09336853 C30.99181298 45.08778844 27.55842964 45.07523955 24.125 45.0625 C21.79166761 45.05748243 19.4583342 45.05291997 17.125 45.04882812 C11.41662093 45.03867809 5.70838416 45.01909868 0 45 C0 30.15 0 15.3 0 0 Z " fill="#1F71FA" transform="translate(139,190)"/>
<path d="M0 0 C26.4 0 52.8 0 80 0 C80 6.6 80 13.2 80 20 C53.6 20 27.2 20 0 20 C0 13.4 0 6.8 0 0 Z " fill="#FAFBFE" transform="translate(304,169)"/>
<path d="M0 0 C8.82212293 7.06772348 11.612665 14.52816876 13.8125 25.52734375 C-6.9775 25.52734375 -27.7675 25.52734375 -49.1875 25.52734375 C-47.99507521 14.79552067 -45.65823169 8.03570087 -37.3125 1.02734375 C-25.6199982 -7.4636397 -12.26068414 -8.25406772 0 0 Z " fill="#2072FA" transform="translate(362.1875,240.47265625)"/>
</svg>
