<?xml version="1.0" standalone="no"?>
<!DOCTYPE svg PUBLIC "-//W3C//DTD SVG 20010904//EN"
 "http://www.w3.org/TR/2001/REC-SVG-20010904/DTD/svg10.dtd">
<svg version="1.0" xmlns="http://www.w3.org/2000/svg"
 width="512.000000pt" height="512.000000pt" viewBox="0 0 512.000000 512.000000"
 preserveAspectRatio="xMidYMid meet">

<g transform="translate(0.000000,512.000000) scale(0.100000,-0.100000)"
fill="#000000" stroke="none">
<path d="M595 5109 c-151 -22 -270 -84 -386 -199 -69 -68 -94 -102 -127 -170
-84 -171 -77 29 -77 -2180 0 -2210 -7 -2010 77 -2180 34 -67 60 -103 128 -170
96 -97 177 -145 305 -182 l80 -23 1965 0 1965 0 80 23 c235 67 420 252 487
487 l23 80 0 1965 0 1965 -23 80 c-36 124 -86 209 -177 301 -91 92 -178 145
-300 184 l-80 25 -1940 1 c-1071 1 -1967 -2 -2000 -7z m1539 -1565 c271 -69
414 -267 377 -521 -21 -144 -110 -279 -218 -331 -18 -9 -33 -18 -32 -21 0 -3
32 -21 71 -40 91 -43 194 -143 232 -224 48 -103 52 -339 6 -457 -43 -115 -138
-207 -285 -279 -150 -74 -153 -74 -772 -78 l-553 -4 0 985 0 986 556 0 c473 0
565 -2 618 -16z m1706 -209 l0 -105 -400 0 -400 0 0 105 0 105 400 0 400 0 0
-105z m-262 -280 c46 -9 116 -34 172 -62 81 -39 109 -60 186 -137 81 -80 97
-103 142 -196 61 -127 82 -216 82 -349 l0 -101 -516 0 -517 0 5 -62 c10 -119
78 -216 187 -266 47 -22 70 -27 146 -27 79 0 98 4 153 29 58 27 162 121 162
147 0 5 75 9 176 9 l175 0 -6 -22 c-3 -13 -24 -60 -46 -106 -74 -153 -204
-263 -374 -319 -109 -35 -315 -44 -430 -18 -223 49 -412 214 -502 435 -43 107
-55 191 -50 335 4 110 9 143 34 217 65 187 203 348 374 432 146 72 290 92 447
61z"/>
<path d="M1400 2995 l0 -227 253 4 c260 5 288 9 353 52 53 34 78 80 82 153 5
72 -14 137 -51 171 -12 12 -45 31 -72 44 -47 22 -64 23 -307 26 l-258 3 0
-226z"/>
<path d="M1400 2195 l0 -266 273 4 c294 4 315 7 394 60 60 40 93 99 100 176
11 121 -42 212 -152 263 -48 22 -62 23 -332 26 l-283 3 0 -266z"/>
<path d="M3333 2744 c-89 -33 -179 -145 -198 -246 l-7 -38 311 0 c355 0 329
-9 290 94 -24 65 -96 149 -153 178 -54 28 -182 34 -243 12z"/>
</g>
</svg>
