<?xml version="1.0" standalone="no"?>
<!DOCTYPE svg PUBLIC "-//W3C//DTD SVG 20010904//EN"
 "http://www.w3.org/TR/2001/REC-SVG-20010904/DTD/svg10.dtd">
<svg version="1.0" xmlns="http://www.w3.org/2000/svg"
 width="512.000000pt" height="512.000000pt" viewBox="0 0 512.000000 512.000000"
 preserveAspectRatio="xMidYMid meet">

<g transform="translate(0.000000,512.000000) scale(0.100000,-0.100000)"
fill="#000000" stroke="none">
<path d="M2510 4813 c-17 -7 -1817 -1005 -1868 -1035 l-32 -20 974 -524 974
-525 939 536 c516 295 941 539 945 543 4 4 -405 236 -909 516 -784 436 -922
510 -962 512 -25 2 -53 1 -61 -3z"/>
<path d="M3678 2982 l-958 -547 0 -1068 0 -1068 78 43 c43 24 435 241 872 483
872 484 882 490 936 607 l29 63 3 780 c1 429 1 887 0 1017 l-3 237 -957 -547z"/>
<path d="M482 2478 l3 -983 29 -63 c54 -117 64 -123 936 -607 437 -242 829
-459 872 -483 l78 -43 0 1068 0 1068 -954 513 c-524 281 -956 512 -959 512 -4
0 -6 -442 -5 -982z"/>
</g>
</svg>
