<?xml version="1.0" encoding="UTF-8"?>
<svg version="1.1" xmlns="http://www.w3.org/2000/svg" width="512" height="512">
<path d="M0 0 C1.04841064 0.57967529 2.09682129 1.15935059 3.17700195 1.7565918 C6.41737045 3.55350354 9.64760591 5.36740273 12.875 7.1875 C13.82777832 7.72375 14.78055664 8.26 15.76220703 8.8125 C19.47297503 10.90344164 23.18097335 12.99913605 26.88427734 15.10327148 C34.59813006 19.48356811 42.35405737 23.78470015 50.125 28.0625 C50.73586456 28.39882446 51.34672913 28.73514893 51.97610474 29.08166504 C52.58799652 29.41855347 53.19988831 29.75544189 53.83032227 30.10253906 C55.06657572 30.78319093 56.30282247 31.46385499 57.5390625 32.14453125 C58.15110031 32.48149017 58.76313812 32.8184491 59.39372253 33.1656189 C69.12263788 38.52424842 78.82554385 43.92985692 88.53222656 49.32861328 C93.01944631 51.82391646 97.50773104 54.31730031 101.99609375 56.81054688 C105.3699144 58.684675 108.74355104 60.55913409 112.1171875 62.43359375 C116.64258518 64.94777634 121.16869315 67.46067392 125.6953125 69.97265625 C140.77499212 78.34258501 155.83361361 86.74897728 170.875 95.1875 C167.98659728 98.32326152 165.16401438 100.34119248 161.421875 102.3671875 C160.34019043 102.95894775 159.25850586 103.55070801 158.14404297 104.16040039 C157.57119568 104.46994659 156.99834839 104.7794928 156.40814209 105.09841919 C153.34448539 106.75482821 150.29373502 108.43469851 147.2421875 110.11328125 C146.30930405 110.6255854 146.30930405 110.6255854 145.35757446 111.14823914 C139.42829582 114.41357517 133.58250226 117.81504422 127.75 121.25 C119.67865602 125.99588618 111.55685627 130.6347645 103.375 135.1875 C95.1529741 139.763164 86.9891857 144.42320748 78.875 149.1875 C69.72586711 154.55946793 60.50096869 159.77826525 51.23046875 164.9375 C43.06538538 169.49286407 34.98722821 174.18498623 26.92529297 178.91992188 C18.48864442 183.86156613 9.97227004 188.65275126 1.421875 193.39453125 C0.44992187 193.93464844 -0.52203125 194.47476563 -1.5234375 195.03125 C-2.46026367 195.55074219 -3.39708984 196.07023438 -4.36230469 196.60546875 C-7.93717896 198.65258657 -11.40594409 200.85599424 -14.85791016 203.10351562 C-17.55527442 204.39323104 -19.16529725 204.53898104 -22.125 204.1875 C-24.29956055 203.30810547 -24.29956055 203.30810547 -26.51171875 202.0546875 C-27.35379883 201.58562988 -28.19587891 201.11657227 -29.06347656 200.63330078 C-29.9706543 200.11493652 -30.87783203 199.59657227 -31.8125 199.0625 C-33.80024782 197.95216949 -35.78855213 196.8428348 -37.77734375 195.734375 C-38.81745605 195.15107422 -39.85756836 194.56777344 -40.92919922 193.96679688 C-46.21359401 191.02465255 -51.5449345 188.17080846 -56.875 185.3125 C-59.07822692 184.12779369 -61.28135113 182.94289635 -63.484375 181.7578125 C-64.58201172 181.16774414 -65.67964844 180.57767578 -66.81054688 179.96972656 C-72.25005128 177.044831 -77.68742989 174.11598947 -83.125 171.1875 C-85.29165621 170.02081392 -87.45832288 168.85414726 -89.625 167.6875 C-154.625 132.6875 -154.625 132.6875 -157.87768555 130.93603516 C-160.03537947 129.77421245 -162.19309417 128.61242833 -164.35083008 127.45068359 C-169.90495439 124.46022724 -175.45867055 121.4690167 -181.01171875 118.4765625 C-192.37023879 112.35645407 -203.73115558 106.24165495 -215.125 100.1875 C-212.39542901 97.25149416 -209.83523226 95.27373485 -206.29296875 93.41015625 C-204.86658081 92.65061646 -204.86658081 92.65061646 -203.41137695 91.87573242 C-202.38874756 91.33924072 -201.36611816 90.80274902 -200.3125 90.25 C-198.12143947 89.08252225 -195.93135759 87.91320623 -193.7421875 86.7421875 C-192.63198242 86.14889648 -191.52177734 85.55560547 -190.37792969 84.94433594 C-185.52496457 82.32335598 -180.7293753 79.60563459 -175.9375 76.875 C-167.28549457 71.95549652 -158.59386451 67.11211815 -149.875 62.3125 C-149.26413544 61.97617554 -148.65327087 61.63985107 -148.02389526 61.29333496 C-147.41200348 60.95644653 -146.80011169 60.61955811 -146.16967773 60.27246094 C-144.93342428 59.59180907 -143.69717753 58.91114501 -142.4609375 58.23046875 C-141.84889969 57.89350983 -141.23686188 57.5565509 -140.60627747 57.2093811 C-134.2289047 53.69676158 -127.86342723 50.1628133 -121.5 46.625 C-120.39430664 46.01027832 -119.28861328 45.39555664 -118.14941406 44.76220703 C-115.92213851 43.52371177 -113.69492482 42.28510525 -111.46777344 41.04638672 C-105.8545386 37.92491651 -100.2396837 34.8063631 -94.625 31.6875 C-92.37499232 30.43751382 -90.12499232 29.18751382 -87.875 27.9375 C-83.375 25.4375 -78.875 22.9375 -74.375 20.4375 C-72.70195801 19.50780396 -72.70195801 19.50780396 -70.99511719 18.55932617 C-68.76191578 17.31896431 -66.5281978 16.07953202 -64.29394531 14.84106445 C-59.03612315 11.92513253 -53.7839395 9.00024764 -48.55004883 6.04159546 C-46.0869581 4.65000363 -43.62087161 3.26376944 -41.15454102 1.87792969 C-39.42235085 0.90168641 -37.69450652 -0.08225531 -35.96679688 -1.06640625 C-21.52279542 -9.17408248 -14.34338314 -8.0913507 0 0 Z " fill="#228762" transform="translate(275.125,36.8125)"/>
<path d="M0 0 C0.09349534 26.4255541 0.16400479 52.85108337 0.20724869 79.27676964 C0.22786243 91.54703683 0.25596049 103.81720117 0.30175781 116.08740234 C0.34166174 126.78373301 0.36744144 137.47998917 0.37635398 148.1763922 C0.38156265 153.83859902 0.39378051 159.50059273 0.42292023 165.16273117 C0.45014534 170.49624277 0.45843058 175.82945422 0.45243073 181.16302872 C0.45352778 183.11648949 0.46143917 185.06996069 0.4768219 187.02336121 C0.61817916 205.90598246 0.61817916 205.90598246 -4 214 C-4.556875 215.03125 -5.11375 216.0625 -5.6875 217.125 C-12.20619133 225.22931895 -20.29552505 230.22433883 -29.375 235.0625 C-30.56513901 235.70837314 -31.75457763 236.35553835 -32.94335938 237.00390625 C-35.40456824 238.34498274 -37.86864461 239.6805485 -40.33496094 241.01220703 C-46.08523079 244.12309277 -51.78979674 247.31637987 -57.5 250.5 C-59.74979243 251.75037356 -61.99979299 253.00037269 -64.25 254.25 C-65.36375 254.86875 -66.4775 255.4875 -67.625 256.125 C-89 268 -110.375 279.875 -131.75 291.75 C-132.86503906 292.3694751 -133.98007812 292.9889502 -135.12890625 293.62719727 C-137.36585467 294.86992839 -139.60283355 296.11260469 -141.83984375 297.35522461 C-147.05106269 300.25005065 -152.2620016 303.14537656 -157.47180176 306.04275513 C-159.89798767 307.39200829 -162.32435377 308.74093724 -164.75073242 310.08984375 C-166.43620954 311.02703019 -168.12143015 311.96467791 -169.80664062 312.90234375 C-171.87139672 314.05013898 -173.93711078 315.19621311 -176.00390625 316.34033203 C-178.05606363 317.47711217 -180.10541402 318.61897021 -182.15234375 319.76513672 C-183.63927734 320.59102295 -183.63927734 320.59102295 -185.15625 321.43359375 C-186.04119141 321.92786865 -186.92613281 322.42214355 -187.83789062 322.93139648 C-190 324 -190 324 -192 324 C-192.21015633 296.20166088 -192.36890787 268.40344064 -192.46630955 240.60446739 C-192.5127352 227.69714188 -192.57603934 214.79030968 -192.67895508 201.88330078 C-192.7686044 190.63472501 -192.82671078 179.38650646 -192.84679645 168.13758337 C-192.85853948 162.18004177 -192.88617292 156.22352215 -192.95157051 150.26630783 C-193.01261771 144.66000925 -193.03151304 139.05515438 -193.01796913 133.44855499 C-193.02044709 131.3901472 -193.03837719 129.33169163 -193.07284927 127.27357101 C-193.32103157 111.6930767 -193.32103157 111.6930767 -190.03735256 107.4846077 C-187.7131376 105.90030931 -185.64661055 104.91934178 -183 104 C-181.97060303 103.39414062 -180.94120605 102.78828125 -179.88061523 102.1640625 C-178.94934814 101.65617187 -178.01808105 101.14828125 -177.05859375 100.625 C-175.99302246 100.03968506 -174.92745117 99.45437012 -173.82958984 98.85131836 C-172.7102002 98.2403833 -171.59081055 97.62944824 -170.4375 97 C-168.02013024 95.67158827 -165.60521879 94.33876965 -163.19140625 93.00390625 C-162.28171082 92.5008773 -162.28171082 92.5008773 -161.3536377 91.98768616 C-155.47506333 88.72675135 -149.66923752 85.34581825 -143.875 81.9375 C-135.8033767 77.19207676 -127.68186845 72.55274228 -119.5 68 C-111.2779741 63.424336 -103.1141857 58.76429252 -95 54 C-85.85086711 48.62803207 -76.62596869 43.40923475 -67.35546875 38.25 C-59.1918185 33.69543548 -51.11475539 29.00466441 -43.0546875 24.26977539 C-34.5605017 19.29358887 -25.9834072 14.47356878 -17.37109375 9.70507812 C-12.96582936 7.25867636 -8.60301405 4.79184881 -4.34375 2.09765625 C-1 0 -1 0 0 0 Z " fill="#228863" transform="translate(464,158)"/>
<path d="M0 0 C2.54559816 1.2707835 5.09097562 2.54200578 7.63623047 3.81347656 C8.35058762 4.17003326 9.06494476 4.52658997 9.8009491 4.89395142 C15.60341762 7.79321184 21.37662717 10.74477326 27.125 13.75 C28.09671143 14.25748779 29.06842285 14.76497559 30.06958008 15.2878418 C37.5523515 19.21038425 44.97861913 23.23015552 52.38623047 27.29248047 C59.81680097 31.36519387 67.27778381 35.3792882 74.75 39.375 C77.13805038 40.65228852 79.5260694 41.92963565 81.9140625 43.20703125 C82.50547531 43.52336517 83.09688812 43.8396991 83.70622253 44.1656189 C93.07580661 49.17879901 102.42775005 54.22482121 111.78222656 59.26611328 C116.10301436 61.59435569 120.42452775 63.92124933 124.74609375 66.24804688 C127.99487521 67.99724073 131.24353142 69.74666704 134.4921875 71.49609375 C138.85112392 73.84326375 143.21054454 76.18953117 147.5703125 78.53515625 C152.95954869 81.43489752 158.34771479 84.33661642 163.73486328 87.24023438 C165.97520088 88.44767818 168.21577311 89.65468669 170.45654297 90.86132812 C173.8262028 92.67652474 177.19452596 94.49417783 180.5625 96.3125 C181.59842285 96.8701001 182.6343457 97.4277002 183.70166016 98.00219727 C185.11970947 98.76874634 185.11970947 98.76874634 186.56640625 99.55078125 C187.40115479 100.00106689 188.23590332 100.45135254 189.09594727 100.9152832 C191 102 191 102 192 103 C192.09787909 105.75638515 192.12993232 108.48770839 192.12025452 111.24452209 C192.12153615 112.55662404 192.12153615 112.55662404 192.12284368 113.89523309 C192.12450117 116.84952793 192.11897273 119.80376697 192.11352539 122.75805664 C192.11324355 124.8665517 192.11340119 126.97504686 192.1139679 129.08354187 C192.114256 134.82710966 192.10835726 140.57065676 192.10139394 146.31421971 C192.09516246 152.30936788 192.09455677 158.30451646 192.09336853 164.29966736 C192.0902546 175.66108096 192.08204039 187.022485 192.07201904 198.38389438 C192.0608598 211.31474646 192.05534793 224.24559898 192.05032361 237.17645466 C192.03985783 263.78430842 192.0222572 290.39215368 192 317 C187.87422234 315.6662609 184.23861041 314.18011535 180.45703125 312.05078125 C178.86761719 311.16132812 178.86761719 311.16132812 177.24609375 310.25390625 C176.11300781 309.61324219 174.97992188 308.97257812 173.8125 308.3125 C172.60968097 307.63747533 171.40654998 306.96300629 170.203125 306.2890625 C167.7053307 304.88967866 165.20889044 303.487923 162.71337891 302.08447266 C156.98806212 298.86723022 151.24301204 295.68550789 145.5 292.5 C143.24990773 291.25016609 140.99990801 290.00016557 138.75 288.75 C137.63625 288.13125 136.5225 287.5125 135.375 286.875 C114 275 92.625 263.125 71.25 251.25 C70.13496094 250.63060547 69.01992187 250.01121094 67.87109375 249.37304688 C65.63386856 248.12999997 63.39688706 246.88651438 61.16015625 245.64257812 C55.95397732 242.74789404 50.7457027 239.85724859 45.52819824 236.98303223 C43.1008956 235.64551265 40.67503414 234.30539085 38.24926758 232.96508789 C36.56535206 232.03605537 34.87939537 231.11072552 33.19335938 230.18554688 C5.67610786 214.9737247 5.67610786 214.9737247 0.44843388 199.35174179 C-0.20532278 195.92321659 -0.13366951 192.51660691 -0.12025452 189.0401001 C-0.12110894 188.23222258 -0.12196337 187.42434507 -0.12284368 186.59198642 C-0.12449225 183.88193982 -0.11898727 181.17195497 -0.11352539 178.46191406 C-0.11324336 176.52046205 -0.11340157 174.57900993 -0.1139679 172.63755798 C-0.11425524 167.36316036 -0.10836855 162.08878539 -0.10139394 156.81439304 C-0.09515005 151.30373308 -0.09455578 145.79307262 -0.09336853 140.28240967 C-0.09025828 129.8454523 -0.08204899 119.40850538 -0.07201904 108.97155261 C-0.06084843 97.09018792 -0.05534506 85.20882273 -0.05032361 73.32745409 C-0.03986614 48.88496359 -0.02227259 24.44248238 0 0 Z " fill="#228863" transform="translate(48,165)"/>
<path d="M0 0 C2 3 2 3 2 8 C-2.29 7.67 -6.58 7.34 -11 7 C-7.38383036 4.28787277 -3.92679647 2.18994418 0 0 Z " fill="#1C7147" transform="translate(199,58)"/>
</svg>
