<?xml version="1.0" encoding="UTF-8"?>
<svg version="1.1" xmlns="http://www.w3.org/2000/svg" width="512" height="512">
<path d="M0 0 C35.31 0 70.62 0 107 0 C107 8.91 107 17.82 107 27 C126.23021915 27.29944273 145.4559958 27.51822168 164.68828297 27.59327984 C173.62016591 27.63066711 182.54909796 27.70303052 191.47973633 27.8605957 C199.27278607 27.99799829 207.06307228 28.06686411 214.85737532 28.05671436 C218.97808088 28.05365623 223.09240834 28.08266147 227.21174049 28.194067 C248.26161496 29.02594577 248.26161496 29.02594577 266.14201641 19.05765247 C269.72744221 15.24137242 273.00362658 11.29439847 276 7 C277.12653974 7.96069543 278.25238935 8.92220018 279.37794495 9.88404846 C280.31849149 10.68707571 280.31849149 10.68707571 281.27803898 11.50632572 C283.0830512 13.07204079 284.79484992 14.69351912 286.46484375 16.40234375 C287.31755859 17.26762695 287.31755859 17.26762695 288.1875 18.15039062 C288.765 18.74013672 289.3425 19.32988281 289.9375 19.9375 C294.79141565 24.84785653 299.75617006 29.50701869 305 34 C307.21414262 35.92391673 309.06570611 37.76812244 311 40 C310.78458572 43.73701067 308.81152375 45.52779877 306.2109375 48.046875 C305.43363281 48.81 304.65632813 49.573125 303.85546875 50.359375 C303.03691406 51.14828125 302.21835937 51.9371875 301.375 52.75 C296.2053081 57.77725306 291.17319089 62.81291792 286.47851562 68.29003906 C284.75577592 70.28245467 282.94376386 72.15712928 281.0625 74 C280.47597656 74.5775 279.88945312 75.155 279.28515625 75.75 C278.86105469 76.1625 278.43695313 76.575 278 77 C274.76587169 75.62053315 273.10079574 74.15983682 270.99487305 71.36730957 C264.8091155 63.79501479 259.45182087 58.2705043 249.39015198 57.22754669 C243.851746 56.98662104 238.35219056 57.06716354 232.8125 57.21875 C230.41399255 57.22616984 228.01545373 57.22649609 225.61694336 57.22009277 C219.35472996 57.22215448 213.0976211 57.31946795 206.83666992 57.43780518 C200.42785442 57.54169609 194.01890386 57.55390542 187.609375 57.57421875 C175.07113311 57.62727409 162.53636843 57.78113293 150 58 C149.55164795 59.38566162 149.55164795 59.38566162 149.09423828 60.79931641 C147.94239922 64.1684842 146.49460684 67.20620402 144.875 70.375 C144.33617187 71.43460937 143.79734375 72.49421875 143.2421875 73.5859375 C142.83226562 74.38257813 142.42234375 75.17921875 142 76 C138.51423718 75.38965243 135.4128077 74.48391539 132.13671875 73.15234375 C130.80737305 72.61577148 130.80737305 72.61577148 129.45117188 72.06835938 C128.53916016 71.69517578 127.62714844 71.32199219 126.6875 70.9375 C125.75615234 70.56044922 124.82480469 70.18339844 123.86523438 69.79492188 C121.57521083 68.86716875 119.28690004 67.93541999 117 67 C117.33 64.36 117.66 61.72 118 59 C114.37 58.67 110.74 58.34 107 58 C107 73.84 107 89.68 107 106 C71.69 106 36.38 106 0 106 C0 90.16 0 74.32 0 58 C-3.63 58 -7.26 58 -11 58 C-10.01 61.96 -10.01 61.96 -9 66 C-9.73863281 66.30292969 -10.47726563 66.60585937 -11.23828125 66.91796875 C-17.47595686 69.49388308 -23.63160165 72.17514029 -29.72265625 75.08203125 C-32 76 -32 76 -35 76 C-36.33819498 73.3773768 -37.6707151 70.75213401 -39 68.125 C-39.3815625 67.37863281 -39.763125 66.63226563 -40.15625 65.86328125 C-40.69765625 64.79013672 -40.69765625 64.79013672 -41.25 63.6953125 C-41.58515625 63.03547363 -41.9203125 62.37563477 -42.265625 61.69580078 C-43 60 -43 60 -43 58 C-56.44852957 57.7824011 -69.89520712 57.6469258 -83.34552956 57.61396885 C-89.59258219 57.59613056 -95.83683948 57.55086812 -102.08300781 57.44116211 C-108.12047254 57.33616 -114.15430594 57.3055092 -120.19260788 57.32465935 C-122.48669016 57.31920536 -124.78087426 57.28773291 -127.07420731 57.22885323 C-140.69217668 56.59698121 -140.69217668 56.59698121 -152.51434326 62.34713745 C-155.59961883 65.42696015 -158.28363699 68.72430907 -160.76045799 72.30918789 C-162.03888901 74.05304702 -163.4366506 75.51046376 -165 77 C-168.81972544 75.40167517 -171.58591665 72.86200615 -174.5625 70.0625 C-175.10535645 69.55396484 -175.64821289 69.04542969 -176.20751953 68.52148438 C-178.14727704 66.69017379 -180.07410825 64.84588702 -182 63 C-182.81807129 62.22124512 -183.63614258 61.44249023 -184.47900391 60.64013672 C-187.12624592 58.10869621 -189.75279059 55.55734308 -192.375 53 C-193.23810791 52.17508057 -194.10121582 51.35016113 -194.99047852 50.50024414 C-196.18241821 49.32449829 -196.18241821 49.32449829 -197.3984375 48.125 C-198.11692871 47.42632812 -198.83541992 46.72765625 -199.57568359 46.0078125 C-201 44 -201 44 -200.77970886 42.08648682 C-199.86857211 39.64830134 -198.79636846 38.43405824 -196.94897461 36.60839844 C-196.30838608 35.9680365 -195.66779755 35.32767456 -195.00779724 34.66790771 C-194.31299759 33.98859192 -193.61819794 33.30927612 -192.90234375 32.609375 C-192.19348526 31.90476135 -191.48462677 31.20014771 -190.75428772 30.47418213 C-188.4889672 28.22565215 -186.21343792 25.98777762 -183.9375 23.75 C-182.39970665 22.22725292 -180.86258869 20.70382346 -179.32617188 19.1796875 C-175.55858198 15.4451719 -171.78255735 11.7193515 -168 8 C-164.07790198 9.82575896 -161.19086904 12.37159876 -158.0625 15.3125 C-157.55009766 15.78623047 -157.03769531 16.25996094 -156.50976562 16.74804688 C-154.15170435 18.93831726 -152.09028066 20.86598739 -150.27850342 23.5553894 C-145.81283619 27.9606341 -138.77153194 26.69841083 -132.93823242 26.65942383 C-131.48922344 26.66787961 -130.04022584 26.67852492 -128.59124756 26.69119263 C-124.66382434 26.71933355 -120.73694738 26.71686852 -116.80945373 26.70889878 C-112.70274664 26.70577349 -108.59621346 26.73080867 -104.48957825 26.75285339 C-96.71590873 26.79030599 -88.94241416 26.80244209 -81.16866332 26.8054778 C-72.31736183 26.81016732 -63.46623573 26.84308718 -54.61501157 26.87837565 C-36.40998461 26.95032397 -18.20516704 26.98310256 0 27 C0 18.09 0 9.18 0 0 Z " fill="#F96D60" transform="translate(201,97)"/>
<path d="M0 0 C35.31 0 70.62 0 107 0 C107 34.98 107 69.96 107 106 C71.69 106 36.38 106 0 106 C0 71.02 0 36.04 0 0 Z " fill="#FC6E62" transform="translate(0,310)"/>
<path d="M0 0 C34.98 0 69.96 0 106 0 C106 34.98 106 69.96 106 106 C71.02 106 36.04 106 0 106 C0 71.02 0 36.04 0 0 Z " fill="#FF7063" transform="translate(406,310)"/>
<path d="M0 0 C3.50827915 1.52079073 5.95271646 3.5995673 8.75 6.1875 C12.57433884 9.70068701 16.44639122 13.13279911 20.40625 16.4921875 C22 18 22 18 24 21 C21.92163598 23.75378742 19.83644237 26.50232965 17.75 29.25 C17.16347656 30.02730469 16.57695313 30.80460937 15.97265625 31.60546875 C15.39902344 32.35957031 14.82539062 33.11367187 14.234375 33.890625 C13.44885254 34.92751465 13.44885254 34.92751465 12.64746094 35.98535156 C10.88843895 38.13642587 8.99387035 40.0667797 7 42 C3.59642336 39.76387408 0.19689524 37.52173951 -3.19897461 35.27392578 C-4.35509957 34.50988645 -5.51232304 33.74750669 -6.6706543 32.98681641 C-8.33408925 31.89400732 -9.99328245 30.79475014 -11.65234375 29.6953125 C-12.65257568 29.03547363 -13.65280762 28.37563477 -14.68334961 27.69580078 C-17 26 -17 26 -18 24 C-12.23284982 15.79835609 -6.38445176 7.73981023 0 0 Z " fill="#EC675B" transform="translate(81,200)"/>
<path d="M0 0 C2.93870996 2.78107801 5.22973282 5.6081128 7.453125 8.984375 C8.38125 10.38623047 8.38125 10.38623047 9.328125 11.81640625 C9.96234375 12.78449219 10.5965625 13.75257813 11.25 14.75 C12.22453125 16.22533203 12.22453125 16.22533203 13.21875 17.73046875 C14.81671378 20.15091389 16.41028709 22.57413114 18 25 C14.39273847 28.74859081 10.62583616 32.02372076 6.5 35.1875 C5.94441406 35.62513672 5.38882813 36.06277344 4.81640625 36.51367188 C1.67758921 38.93240736 -1.23558596 40.74285427 -5 42 C-24 21.49269311 -24 21.49269311 -24 18 C-16.76853026 11.20175195 -8.1097486 5.70253216 0 0 Z " fill="#ED685C" transform="translate(127,160)"/>
<path d="M0 0 C3.80517008 0.48625315 6.84912056 1.73184267 10.265625 3.43359375 C11.72355469 4.1596582 11.72355469 4.1596582 13.2109375 4.90039062 C14.71527344 5.66125977 14.71527344 5.66125977 16.25 6.4375 C17.26835938 6.94087891 18.28671875 7.44425781 19.3359375 7.96289062 C20.30273438 8.44822266 21.26953125 8.93355469 22.265625 9.43359375 C23.59255371 10.09959595 23.59255371 10.09959595 24.94628906 10.77905273 C27 12 27 12 28 14 C27.41088867 15.8918457 27.41088867 15.8918457 26.41796875 18.17578125 C26.06283203 19.00400391 25.70769531 19.83222656 25.34179688 20.68554688 C24.96087891 21.55244141 24.57996094 22.41933594 24.1875 23.3125 C23.45157315 25.01681925 22.71588905 26.72124336 21.98046875 28.42578125 C21.63419434 29.22193848 21.28791992 30.0180957 20.93115234 30.83837891 C19.91004678 33.20882165 18.93715368 35.59513473 18 38 C11.24476394 36.6393319 4.91424405 34.71290027 -1.5625 32.375 C-2.93245117 31.88773437 -2.93245117 31.88773437 -4.33007812 31.390625 C-6.55511941 30.59846371 -8.77832175 29.8015341 -11 29 C-10.49225627 22.4537326 -8.14565 17.08795107 -5.5 11.125 C-5.08363281 10.16335938 -4.66726562 9.20171875 -4.23828125 8.2109375 C-1.16171288 1.16171288 -1.16171288 1.16171288 0 0 Z " fill="#ED685C" transform="translate(48,251)"/>
<path d="M0 0 C4.98749809 3.82100678 8.59778909 8.01548929 12.3125 13.0625 C13.1178418 14.12307617 13.1178418 14.12307617 13.93945312 15.20507812 C16.36883243 18.46773759 18.2139022 20.94865893 19 25 C13.10943103 29.53357926 7.1827436 33.99482715 1 38.125 C-0.299375 38.99511719 -0.299375 38.99511719 -1.625 39.8828125 C-4 41 -4 41 -6.0703125 41 C-8.89622215 39.53556099 -10.09794075 37.49419977 -11.875 34.875 C-14.28076391 31.39499254 -16.67418987 28.15278986 -19.5625 25.0625 C-22 22 -22 22 -21.92578125 20.0703125 C-20.66852202 17.25872012 -18.95100478 15.82665872 -16.625 13.8125 C-15.28695313 12.64847656 -15.28695313 12.64847656 -13.921875 11.4609375 C-9.32343188 7.58791722 -4.68528085 3.76782091 0 0 Z " fill="#ED685C" transform="translate(426,200)"/>
<path d="M0 0 C11 24.62640449 11 24.62640449 11 29 C6.75351978 30.51009763 2.50227982 32.00631943 -1.75 33.5 C-2.9565625 33.92925781 -4.163125 34.35851562 -5.40625 34.80078125 C-6.56640625 35.20683594 -7.7265625 35.61289062 -8.921875 36.03125 C-10.52434082 36.59682617 -10.52434082 36.59682617 -12.15917969 37.17382812 C-15 38 -15 38 -19 38 C-20.3196608 34.77371408 -21.62944528 31.54350696 -22.9375 28.3125 C-23.31068359 27.40048828 -23.68386719 26.48847656 -24.06835938 25.54882812 C-24.42607422 24.66259766 -24.78378906 23.77636719 -25.15234375 22.86328125 C-25.48226318 22.05157471 -25.81218262 21.23986816 -26.15209961 20.40356445 C-27.01772244 17.94976176 -27.55173421 15.56009574 -28 13 C-3.80555556 0 -3.80555556 0 0 0 Z " fill="#ED685C" transform="translate(461,250)"/>
<path d="M0 0 C4.75043625 0.47592497 7.70732051 2.71596742 11.3125 5.625 C11.8799292 6.07214355 12.4473584 6.51928711 13.03198242 6.97998047 C17.4792596 10.51024768 21.80501372 14.17255028 26 18 C21.958644 23.67974357 17.54689343 28.8009379 12.78393555 33.87402344 C10.63159317 36.17458214 8.75328924 38.37006614 7 41 C2.99330306 40.42895207 0.77902125 38.39582241 -2.25 35.8125 C-6.72931074 32.04867648 -11.27673803 28.45109399 -16 25 C-10.69800938 16.64638135 -5.35583702 8.31915728 0 0 Z " fill="#ED685C" transform="translate(380,161)"/>
<path d="M0 0 C6.6 0.99 13.2 1.98 20 3 C20 3.33 20 3.66 20 4 C16.91747911 4.50509639 13.83386475 5.00317999 10.75 5.5 C9.87730469 5.64308594 9.00460938 5.78617187 8.10546875 5.93359375 C6.83896484 6.13662109 6.83896484 6.13662109 5.546875 6.34375 C4.38430176 6.53227539 4.38430176 6.53227539 3.19824219 6.72460938 C1 7 1 7 -3 7 C-2.38722388 4.03824877 -1.74627478 2.61941217 0 0 Z " fill="#FB638E" transform="translate(42,267)"/>
</svg>
