<?xml version="1.0" encoding="UTF-8"?>
<svg version="1.1" xmlns="http://www.w3.org/2000/svg" width="512" height="512">
<path d="M0 0 C1.67459856 -0.00302307 3.34919573 -0.00691333 5.02379048 -0.01159257 C9.61128246 -0.02186124 14.19869619 -0.01969362 18.78619456 -0.01541197 C23.73926683 -0.01294271 28.69232036 -0.02196139 33.64538574 -0.02944946 C43.3434226 -0.0421928 53.04143177 -0.04399062 62.73947559 -0.0416492 C70.62294216 -0.03986551 78.50640032 -0.04161677 86.38986588 -0.04587364 C88.07346783 -0.04676643 88.07346783 -0.04676643 89.79108194 -0.04767724 C92.07130709 -0.04888901 94.35153224 -0.05010314 96.63175739 -0.05131962 C118.0112488 -0.06219371 139.39072443 -0.06003326 160.77021672 -0.05393478 C180.32347575 -0.04876547 199.87668496 -0.06002168 219.42993413 -0.07903299 C239.51398728 -0.0984105 259.59801687 -0.10666756 279.68207943 -0.10290974 C290.9550402 -0.1009976 302.22795857 -0.10348656 313.50091171 -0.11762428 C323.09744317 -0.1295379 332.69390612 -0.13094313 342.29043852 -0.11883412 C347.18495238 -0.1129454 352.07934092 -0.11184587 356.97384644 -0.12383652 C361.4583347 -0.13469488 365.94259301 -0.13159247 370.42707051 -0.11757483 C372.04542515 -0.1149278 373.66379781 -0.11729465 375.28213476 -0.1253107 C393.94883565 -0.2113209 410.87328405 4.87352597 424.61746216 17.98139954 C439.06211389 32.60660942 442.88972925 49.89385842 442.83909607 69.68229675 C442.84211914 71.35689531 442.8460094 73.03149248 442.85068864 74.70608723 C442.86095731 79.29357922 442.85878969 83.88099295 442.85450804 88.46849132 C442.85203878 93.42156358 442.86105746 98.37461711 442.86854553 103.3276825 C442.88128887 113.02571936 442.88308668 122.72372852 442.88074527 132.42177235 C442.87896158 140.30523891 442.88071284 148.18869707 442.88496971 156.07216263 C442.8855649 157.19456393 442.88616009 158.31696523 442.88677331 159.4733787 C442.88798508 161.75360385 442.88919921 164.033829 442.89041569 166.31405415 C442.90128978 187.69354555 442.89912933 209.07302118 442.89303084 230.45251347 C442.88786153 250.0057725 442.89911775 269.55898171 442.91812906 289.11223088 C442.93750657 309.19628404 442.94576363 329.28031362 442.94200581 349.36437619 C442.94009367 360.63733696 442.94258263 371.91025532 442.95672035 383.18320847 C442.96863397 392.77973992 442.9700392 402.37620287 442.95793018 411.97273527 C442.95204147 416.86724913 442.95094194 421.76163768 442.96293259 426.65614319 C442.97379095 431.14063145 442.97068854 435.62488976 442.9566709 440.10936727 C442.95402386 441.7277219 442.95639072 443.34609456 442.96440677 444.96443151 C443.05041697 463.6311324 437.9655701 480.5555808 424.85769653 494.29975891 C410.23248665 508.74441065 392.94523764 512.57202601 373.15679932 512.52139282 C371.48220076 512.52441589 369.80760358 512.52830615 368.13300884 512.53298539 C363.54551685 512.54325407 358.95810312 512.54108644 354.37060475 512.5368048 C349.41753248 512.53433553 344.46447896 512.54335422 339.51141357 512.55084229 C329.81337671 512.56358562 320.11536755 512.56538344 310.41732372 512.56304202 C302.53385716 512.56125833 294.650399 512.5630096 286.76693344 512.56726646 C285.08333149 512.56815925 285.08333149 512.56815925 283.36571737 512.56907007 C281.08549222 512.57028183 278.80526707 512.57149596 276.52504192 512.57271244 C255.14555052 512.58358653 233.76607489 512.58142608 212.3865826 512.5753276 C192.83332357 512.57015829 173.28011436 512.5814145 153.72686519 512.60042582 C133.64281203 512.61980333 113.55878245 512.62806038 93.47471988 512.62430257 C82.20175911 512.62239043 70.92884075 512.62487938 59.6558876 512.63901711 C50.05935615 512.65093072 40.4628932 512.65233595 30.8663608 512.64022694 C25.97184694 512.63433823 21.07745839 512.63323869 16.18295288 512.64522934 C11.69846462 512.6560877 7.21420631 512.65298529 2.7297288 512.63896766 C1.11137417 512.63632062 -0.50699849 512.63868747 -2.12533544 512.64670352 C-20.79203633 512.73271373 -37.71648473 507.64786685 -51.46066284 494.53999329 C-65.90531458 479.9147834 -69.73292994 462.6275344 -69.68229675 442.83909607 C-69.68531982 441.16449751 -69.68921008 439.48990034 -69.69388932 437.81530559 C-69.704158 433.22781361 -69.70199038 428.64039988 -69.69770873 424.05290151 C-69.69523946 419.09982924 -69.70425815 414.14677571 -69.71174622 409.19371033 C-69.72448955 399.49567347 -69.72628737 389.7976643 -69.72394595 380.09962048 C-69.72216226 372.21615391 -69.72391353 364.33269575 -69.72817039 356.44923019 C-69.72876558 355.32682889 -69.72936077 354.20442759 -69.729974 353.04801413 C-69.73118576 350.76778898 -69.73239989 348.48756382 -69.73361637 346.20733868 C-69.74449046 324.82784727 -69.74233001 303.44837164 -69.73623153 282.06887935 C-69.73106222 262.51562032 -69.74231843 242.96241111 -69.76132975 223.40916194 C-69.78070726 203.32510879 -69.78896432 183.2410792 -69.7852065 163.15701663 C-69.78329436 151.88405587 -69.78578331 140.6111375 -69.79992104 129.33818436 C-69.81183466 119.7416529 -69.81323988 110.14518995 -69.80113087 100.54865755 C-69.79524216 95.65414369 -69.79414263 90.75975515 -69.80613327 85.86524963 C-69.81699163 81.38076137 -69.81388922 76.89650306 -69.79987159 72.41202556 C-69.79722455 70.79367092 -69.79959141 69.17529826 -69.80760745 67.55696131 C-69.89361766 48.89026042 -64.80877078 31.96581202 -51.70089722 18.22163391 C-37.07568733 3.77698217 -19.78843833 -0.05063318 0 0 Z " fill="#1976D2" transform="translate(69.42160034179688,-0.2606964111328125)"/>
<path d="M0 0 C1.49486961 0.0044257 2.98974392 0.00747706 4.48461914 0.00915527 C9.95075574 0.02471194 15.416792 0.06659448 20.8828125 0.10546875 C33.1340625 0.16734375 45.3853125 0.22921875 58.0078125 0.29296875 C58.0078125 26.69296875 58.0078125 53.09296875 58.0078125 80.29296875 C32.5078125 80.54296875 32.5078125 80.54296875 24.50195312 80.59082031 C22.38930096 80.62020659 20.27666816 80.65103532 18.1640625 80.68359375 C17.0822168 80.68472168 16.00037109 80.68584961 14.88574219 80.68701172 C8.68315684 80.80355892 2.95515634 81.18388849 -1.9921875 85.29296875 C-5.04137227 89.27803509 -5.37991947 92.33121723 -5.42456055 97.28637695 C-5.43483434 97.98083262 -5.44510813 98.6752883 -5.45569324 99.39078808 C-5.48543813 101.62519875 -5.49510024 103.8591692 -5.50390625 106.09375 C-5.51938145 107.47865319 -5.53617995 108.86354225 -5.55432129 110.24841309 C-5.612132 115.36727577 -5.64437571 120.48640142 -5.6796875 125.60546875 C-5.834375 142.77578125 -5.834375 142.77578125 -5.9921875 160.29296875 C20.4078125 160.29296875 46.8078125 160.29296875 74.0078125 160.29296875 C67.04869137 178.85062509 67.04869137 178.85062509 63.54203796 187.68540955 C63.28861822 188.32429548 63.03519848 188.96318142 62.77409935 189.62142754 C62.51477938 190.27487207 62.2554594 190.92831661 61.98828125 191.6015625 C61.43869235 192.98875331 60.8891584 194.37596589 60.3396759 195.76319885 C59.20380079 198.62973374 58.06676704 201.49580565 56.92895508 204.36157227 C55.46907355 208.03902147 54.01301425 211.71797162 52.55785656 215.39729214 C51.43157912 218.24345911 50.30294182 221.08868569 49.17360878 223.93364143 C48.6349164 225.29174166 48.09705819 226.65017306 47.56004906 228.00893974 C46.81618129 229.89031925 46.0687078 231.77027193 45.32104492 233.65014648 C44.89724045 234.71885483 44.47343597 235.78756317 44.03678894 236.88865662 C43.0078125 239.29296875 43.0078125 239.29296875 42.0078125 240.29296875 C26.1678125 240.29296875 10.3278125 240.29296875 -5.9921875 240.29296875 C-5.9921875 298.37296875 -5.9921875 356.45296875 -5.9921875 416.29296875 C-37.6721875 416.29296875 -69.3521875 416.29296875 -101.9921875 416.29296875 C-101.9921875 358.21296875 -101.9921875 300.13296875 -101.9921875 240.29296875 C-123.1121875 240.29296875 -144.2321875 240.29296875 -165.9921875 240.29296875 C-165.9921875 213.89296875 -165.9921875 187.49296875 -165.9921875 160.29296875 C-144.8721875 160.29296875 -123.7521875 160.29296875 -101.9921875 160.29296875 C-102.03859375 155.00394531 -102.085 149.71492187 -102.1328125 144.265625 C-102.15329302 140.8795372 -102.1725516 137.49352767 -102.1875 134.10742188 C-102.21124913 128.75349724 -102.23908997 123.39985071 -102.29394531 118.04614258 C-102.33797237 113.72130258 -102.36144202 109.39676152 -102.37169647 105.0717144 C-102.3789874 103.43618512 -102.39321848 101.8006689 -102.41510773 100.16526985 C-102.74063902 74.79399509 -94.89033058 50.04359112 -77.14111328 31.43603516 C-75.7714953 30.04176499 -74.38209478 28.66701404 -72.9921875 27.29296875 C-71.80689453 26.09220703 -71.80689453 26.09220703 -70.59765625 24.8671875 C-51.29348203 6.33133863 -26.1087908 -0.26214862 0 0 Z " fill="#F9F9F9" transform="translate(357.9921875,95.70703125)"/>
</svg>
