<?xml version="1.0" encoding="UTF-8"?>
<svg version="1.1" xmlns="http://www.w3.org/2000/svg" width="512" height="512">
<path d="M0 0 C0.90094479 -0.00085442 1.80188959 -0.00170885 2.73013574 -0.00258917 C5.76113525 -0.00424154 8.7920799 0.00127347 11.82307434 0.00672913 C13.99097696 0.00701108 16.15887967 0.00685311 18.32678223 0.00628662 C24.22311907 0.00599895 30.11943569 0.01189079 36.01576781 0.01886058 C42.17372902 0.02509916 48.33169066 0.02569832 54.48965454 0.02688599 C66.15557875 0.02999781 77.82149362 0.0382092 89.4874137 0.04823548 C102.76655252 0.05940123 116.04569072 0.06490823 129.32483327 0.06993091 C156.64562259 0.08039193 183.96640361 0.0979885 211.28718567 0.12025452 C210.32666112 1.24354576 209.36575759 2.36651295 208.4046936 3.48934269 C207.86963101 4.11472968 207.33456842 4.74011667 206.78329182 5.38445479 C201.91077102 11.03761001 196.69359411 16.38681093 191.50447083 21.74745178 C190.02682841 23.28708294 188.5628358 24.839932 187.11286926 26.40565491 C175.01499612 39.4466639 175.01499612 39.4466639 168.40461731 41.07899475 C164.92654399 41.05127081 161.71540141 40.67336044 158.28718567 40.12025452 C137.52103551 41.278485 118.34653485 51.0800205 104.28718567 66.12025452 C101.54572365 69.60938799 99.36230776 73.20230013 97.28718567 77.12025452 C96.72773254 78.17084045 96.16827942 79.22142639 95.59187317 80.30384827 C79.39082091 112.88757894 73.49308006 150.67039319 68.47468567 186.37025452 C68.28857727 187.68219788 68.28857727 187.68219788 68.09870911 189.02064514 C66.51046147 200.72582169 66.51046147 200.72582169 71.28718567 211.12025452 C75.97092342 214.10402888 79.23124865 214.40694428 84.70906067 213.94447327 C85.75498383 213.85911568 85.75498383 213.85911568 86.82203674 213.77203369 C94.10335786 213.13551046 101.32314062 212.0966754 108.53718567 210.93275452 C109.21806244 210.82421143 109.89893921 210.71566833 110.60044861 210.60383606 C140.48453213 205.81999553 170.57206314 199.59460934 198.28718567 187.12025452 C199.237547 186.69558899 199.237547 186.69558899 200.20710754 186.26234436 C217.88388622 178.15484045 229.41260303 164.00364782 236.29499817 146.03822327 C239.97487727 135.21590164 241.84111462 124.18240796 241.05288029 112.71005917 C241.33363735 108.40856599 242.23438324 107.23713769 245.14935303 104.14041138 C246.00724426 103.21364594 246.8651355 102.28688049 247.74902344 101.33203125 C248.71298961 100.32745035 249.67746941 99.32336211 250.64241028 98.31971741 C251.65098533 97.24595184 252.6583089 96.17100962 253.66447449 95.09498596 C256.97807021 91.56709534 260.33042736 88.07742622 263.68952942 84.59291077 C264.2635963 83.99641118 264.83766318 83.39991159 265.42912602 82.78533626 C270.86457982 77.13971775 276.31422398 71.50816597 281.7983923 65.90982914 C288.13988903 59.43476281 294.43590673 52.92739872 300.62434387 46.30555725 C345.68462437 -1.84641168 345.68462437 -1.84641168 365.71664143 -3.61962605 C376.29131535 -3.94417182 390.80664574 -2.92927563 398.93171692 4.65541077 C403.14712539 10.16786799 403.43574285 13.4487128 403.43435669 20.27313232 C403.43803338 21.23362057 403.44171007 22.19410882 403.44549817 23.18370277 C403.45656697 26.42256843 403.46038426 29.66140204 403.46418762 32.90028381 C403.47044988 35.21431582 403.47709646 37.52834682 403.48410034 39.84237671 C403.50153267 46.1441767 403.51206827 52.44596909 403.52030587 58.74778724 C403.52545147 62.68265716 403.53152741 66.61752471 403.537817 70.55239296 C403.55469035 81.44611568 403.56932496 92.33983548 403.57656574 103.23356915 C403.57847566 106.06127613 403.58039598 108.88898311 403.58235168 111.71669006 C403.58283542 112.41950797 403.58331916 113.12232588 403.58381756 113.84644131 C403.59211613 125.22918864 403.6174492 136.61183082 403.64993236 147.99453225 C403.68300793 159.68009163 403.70068226 171.36559215 403.70420998 183.0511983 C403.7065634 189.61254795 403.71556186 196.17373148 403.74067116 202.73503685 C403.76391273 208.90822137 403.7682007 215.08112995 403.75790977 221.25434685 C403.75741335 223.52028571 403.7637651 225.78623797 403.77746582 228.05213547 C403.79512562 231.14590858 403.78810709 234.23868512 403.77493286 237.3324585 C403.79138673 238.677223 403.79138673 238.677223 403.808173 240.04915446 C403.74797575 245.90539617 402.95338056 249.46125097 399.28718567 254.12025452 C392.71255839 259.89572624 383.3836082 258.6779003 375.19343567 258.62818909 C373.54230703 258.63280073 371.8911825 258.63915542 370.24006653 258.64709806 C365.71284453 258.66377838 361.18596031 258.65555093 356.65873718 258.64315319 C351.77249374 258.63409972 346.88630822 258.64807391 342.00007629 258.65907288 C332.43188272 258.67685949 322.86381465 258.67301746 313.29561615 258.66142231 C305.51935801 258.65238884 297.74313505 258.65116362 289.96687317 258.65551758 C288.86012238 258.65613051 287.75337158 258.65674344 286.61308289 258.65737495 C284.364741 258.65865385 282.11639912 258.6599507 279.86805725 258.66126531 C258.78526659 258.67267153 237.70254549 258.65955674 216.61976624 258.63806385 C198.52970454 258.62019284 180.43974551 258.62329694 162.34968567 258.64173889 C141.34234425 258.66314485 120.33506381 258.67157289 99.32771301 258.65928984 C97.08764141 258.65801564 94.84756979 258.65675816 92.60749817 258.65551758 C90.95426041 258.65459192 90.95426041 258.65459192 89.2676239 258.65364757 C81.5006921 258.65019385 73.73379898 258.6560235 65.96687317 258.66543579 C56.50159102 258.67665408 47.03644157 258.67361925 37.57117462 258.65231282 C32.74181821 258.64180017 27.91268303 258.6376843 23.08332825 258.65090942 C18.66179677 258.66283461 14.24069146 258.65626868 9.81919861 258.63499922 C8.22038697 258.6305337 6.62153928 258.63279833 5.02275085 258.64250237 C-11.46037835 258.73486859 -11.46037835 258.73486859 -16.71281433 254.12025452 C-20.99137939 248.67735496 -21.28831086 244.12687208 -21.2207489 237.359375 C-21.22698886 236.39390906 -21.23322883 235.42844313 -21.23965788 234.43372065 C-21.25557645 231.20780629 -21.24298775 227.98264871 -21.23039246 224.75672913 C-21.23581402 222.44033366 -21.24293687 220.12394164 -21.25163269 217.80755615 C-21.26986363 211.52255823 -21.26279952 205.23782304 -21.25011635 198.95282054 C-21.23998883 192.37593932 -21.24938124 185.79908059 -21.25566101 179.22219849 C-21.26420306 167.47132648 -21.25097491 155.72056501 -21.23062366 143.96971215 C-21.21274917 133.31923155 -21.21586118 122.66892533 -21.23429871 112.01844788 C-21.25571264 99.64289039 -21.26366899 87.26744405 -21.25184965 74.89187056 C-21.24561169 68.34350972 -21.24478766 61.79526896 -21.25799561 55.24691582 C-21.26954356 49.09168466 -21.26154718 42.93678312 -21.23841858 36.7815876 C-21.23312615 34.52168958 -21.23465433 32.26176386 -21.24346924 30.00187683 C-21.25438664 26.91892589 -21.24070632 23.83703372 -21.2207489 20.75415039 C-21.22967179 19.85813848 -21.23859468 18.96212657 -21.24778795 18.03896278 C-21.17906854 12.57282415 -20.34577521 9.45987171 -16.71281433 5.12025452 C-11.286343 0.22319502 -7.07327076 -0.02431729 0 0 Z " fill="#6B77FB" transform="translate(64.71281433105469,111.87974548339844)"/>
<path d="M0 0 C27.06 0 54.12 0 82 0 C86.12197084 49.05145297 86.12197084 49.05145297 87.25 64.0625 C87.32976074 65.1038208 87.40952148 66.1451416 87.49169922 67.21801758 C87.56146973 68.16829834 87.63124023 69.1185791 87.703125 70.09765625 C87.76145508 70.88664307 87.81978516 71.67562988 87.87988281 72.48852539 C88.03161176 75.66095571 88.01844957 78.82448917 88 82 C88.55852661 81.99111755 89.11705322 81.98223511 89.69250488 81.9730835 C95.53285433 81.88423376 101.37301017 81.82411055 107.21386719 81.78027344 C109.39037888 81.76022236 111.56683714 81.73297429 113.74316406 81.69824219 C116.88099393 81.64943788 120.01810835 81.62696562 123.15625 81.609375 C124.12115356 81.58872986 125.08605713 81.56808472 126.0802002 81.54681396 C132.17091985 81.54481456 136.97951066 82.36923591 142 86 C145.90851416 90.38420259 146.64623937 94.85010858 146.3828125 100.63671875 C145.59170404 105.52060261 143.0883709 108.1255978 139.34537601 111.13273716 C135.45638956 113.30342287 132.43072657 113.55912144 128.09898376 113.50120544 C126.93277326 113.50950704 126.93277326 113.50950704 125.74300295 113.51797634 C123.14726894 113.53155025 120.5525019 113.51663193 117.95678711 113.50170898 C116.09211316 113.50549332 114.22744203 113.51099431 112.36277771 113.51808167 C107.30498768 113.53203757 102.24753777 113.5208659 97.18976665 113.50437045 C91.89632957 113.49051645 86.60291216 113.49698035 81.3094635 113.50050354 C72.42134115 113.50320514 63.53335388 113.48973347 54.64526367 113.46655273 C44.36824067 113.43993517 34.09144342 113.4381987 23.81439775 113.4499411 C13.92801457 113.46071807 4.04171307 113.45453296 -5.84466362 113.44038582 C-10.05230069 113.43462615 -14.25987799 113.43470854 -18.46751595 113.43945122 C-23.42109132 113.44422157 -28.3744193 113.43411682 -33.32794762 113.41249657 C-35.14642121 113.40692964 -36.96491858 113.40646254 -38.78339386 113.41144943 C-41.26452672 113.41740057 -43.74490274 113.40490087 -46.22596741 113.38768005 C-46.94659066 113.3936901 -47.66721391 113.39970014 -48.40967423 113.40589231 C-52.78594384 113.35060801 -55.50584545 112.65282958 -59 110 C-63.36976996 105.02331755 -64.37306511 102.12810192 -64.26953125 95.60546875 C-63.85228227 91.5720619 -62.68063395 89.01029607 -60 86 C-54.06807284 81.71009385 -48.25941862 81.45739513 -41.15625 81.609375 C-40.14655151 81.61503479 -39.13685303 81.62069458 -38.09655762 81.62652588 C-34.89720623 81.648772 -31.69900825 81.69894687 -28.5 81.75 C-26.32032877 81.77008018 -24.14063984 81.78832828 -21.9609375 81.8046875 C-16.64023684 81.8485979 -11.32020086 81.91539096 -6 82 C-5.95101562 80.87166748 -5.90203125 79.74333496 -5.8515625 78.58081055 C-5.23917618 65.14782893 -4.29914889 51.74848647 -3.27050781 38.34155273 C-2.99746044 34.77936888 -2.72892794 31.21686439 -2.4609375 27.65429688 C-2.28672089 25.35935505 -2.11225102 23.06443244 -1.9375 20.76953125 C-1.85830322 19.7194136 -1.77910645 18.66929596 -1.69750977 17.58735657 C-1.62072998 16.59149033 -1.5439502 15.59562408 -1.46484375 14.56958008 C-1.399021 13.70835037 -1.33319824 12.84712067 -1.26538086 11.95979309 C-0.90737575 7.96696159 -0.44270332 3.98432991 0 0 Z " fill="#6A76F9" transform="translate(215,399)"/>
<path d="M0 0 C4.97601339 2.81500186 8.66526211 6.72951357 10.55078125 12.16015625 C11.64266295 19.97725621 11.01853477 25.58200608 6.55078125 32.16015625 C4.53439874 34.56470911 2.34361736 36.76066472 0.10943604 38.96226501 C-0.53509938 39.60936371 -1.1796348 40.2564624 -1.8437016 40.92317015 C-3.99388937 43.0782786 -6.15458413 45.22252528 -8.31542969 47.36694336 C-9.86344258 48.91410962 -11.41079435 50.46193761 -12.95753479 52.01037598 C-17.15088674 56.20458786 -21.35341704 60.3894924 -25.55766201 64.57278132 C-29.95260191 68.94895427 -34.339035 73.33363705 -38.72637939 77.71742249 C-46.56036198 85.54261435 -54.40075195 93.36134554 -62.24456635 101.17668129 C-69.36360361 108.27000842 -76.47914388 115.36682306 -83.59130859 122.46704102 C-84.05921601 122.93416026 -84.52712342 123.4012795 -85.00920984 123.88255387 C-87.35667814 126.22610689 -89.704081 128.56972544 -92.05145979 130.91336811 C-111.50790851 150.33846796 -130.97503672 169.75283569 -150.44921875 189.16015625 C-154.26370622 187.88866043 -154.90290855 186.39173336 -157.13671875 183.09765625 C-163.41214239 174.26176832 -170.40510091 168.09072533 -179.44921875 162.16015625 C-177.78553499 157.83342651 -174.5017787 154.93179436 -171.2820282 151.73226929 C-170.32308009 150.76758285 -170.32308009 150.76758285 -169.34475929 149.78340781 C-167.19772499 147.62604088 -165.04359336 145.47590461 -162.8894043 143.32568359 C-161.35003476 141.78196776 -159.81108406 140.23783419 -158.27252197 138.6933136 C-154.08921428 134.4965964 -149.89950287 130.30632797 -145.7082212 126.11757612 C-142.21225038 122.62267361 -138.71925746 119.12480236 -135.22621948 115.62696898 C-126.51592212 106.90493478 -117.79933353 98.18921682 -109.07995538 89.47626169 C-101.97867283 82.37982743 -94.88413082 75.2767096 -87.79418945 68.16894531 C-79.56069453 59.91482671 -71.3221468 51.6658006 -63.07649451 43.42382586 C-58.71179087 39.06093775 -54.34935744 34.69583834 -49.9924984 30.3251152 C-45.89605118 26.21612143 -41.79245401 22.11440666 -37.68319702 18.01822472 C-36.17493095 16.51233083 -34.66922842 15.00386441 -33.1662693 13.49267387 C-31.11681646 11.43280661 -29.0583722 9.38236807 -26.99736023 7.33407593 C-26.40240979 6.73175121 -25.80745936 6.12942649 -25.19448012 5.5088495 C-18.29177647 -1.30432339 -9.41973144 -3.23005145 0 0 Z " fill="#6874F5" transform="translate(447.44921875,0.83984375)"/>
<path d="M0 0 C9.83179615 7.26404183 17.06319871 17.56479388 19.8359375 29.57421875 C21.96808645 44.70866887 20.00823255 58.42966947 11.1640625 71.25 C-8.63676548 96.6965186 -59.17687915 101.84049177 -88.7265625 105.6796875 C-90.3929412 105.71066798 -92.06040141 105.7207362 -93.7265625 105.6796875 C-93.15198032 96.15914426 -91.43509924 86.89437576 -89.6015625 77.5546875 C-89.4469455 76.76344482 -89.29232849 75.97220215 -89.13302612 75.15698242 C-85.60539596 57.22702519 -81.28811929 39.68363188 -74.6640625 22.6171875 C-74.35992432 21.82570312 -74.05578613 21.03421875 -73.74243164 20.21875 C-68.71580765 7.94175431 -60.54822165 0.81516153 -48.88671875 -5.0234375 C-32.7981143 -11.6259303 -14.51405762 -9.44118311 0 0 Z " fill="#6A76FA" transform="translate(256.7265625,189.3203125)"/>
</svg>
