<?xml version="1.0" encoding="UTF-8"?>
<svg version="1.1" xmlns="http://www.w3.org/2000/svg" width="512" height="512">
<path d="M0 0 C0.67709015 0.00054382 1.3541803 0.00108765 2.05178833 0.00164795 C36.11820808 0.12687925 67.42104758 13.53713744 91.46386719 37.75244141 C114.70880871 62.30518796 126.64268856 94.31262132 126.35351562 127.93554688 C125.6266079 154.41575686 116.6773598 178.29100662 102.02807617 200.16723633 C84.41540325 226.65597739 78.13918807 256.33108951 74 287.375 C54.53 287.375 35.06 287.375 15 287.375 C15 265.265 15 243.155 15 220.375 C18.96 218.395 22.92 216.415 27 214.375 C39.92701031 204.82025325 43.93708642 192.68956789 47 177.375 C37.43 177.375 27.86 177.375 18 177.375 C17.67 179.685 17.34 181.995 17 184.375 C14.60984444 188.26221536 11.48198155 191.43901166 7.625 193.875 C2.44687344 194.86130982 -2.15464877 194.99011708 -7.1875 193.3125 C-10.77157911 190.84346772 -13.83262602 188.18731906 -16 184.375 C-16.495 180.91 -16.495 180.91 -17 177.375 C-26.57 177.375 -36.14 177.375 -46 177.375 C-42.77968483 192.40313744 -39.05926185 205.58787415 -25.92578125 214.44921875 C-22.03030888 216.76582656 -18.30714806 218.93928398 -14 220.375 C-14 242.485 -14 264.595 -14 287.375 C-23.549375 287.395625 -33.09875 287.41625 -42.9375 287.4375 C-45.95640381 287.446604 -48.97530762 287.45570801 -52.08569336 287.46508789 C-54.46207637 287.4680068 -56.83845988 287.47055541 -59.21484375 287.47265625 C-60.462052 287.47777222 -61.70926025 287.48288818 -62.9942627 287.48815918 C-64.17170044 287.48828003 -65.34913818 287.48840088 -66.56225586 287.48852539 C-68.1044706 287.49185631 -68.1044706 287.49185631 -69.67784119 287.49525452 C-72 287.375 -72 287.375 -73 286.375 C-73.22676123 284.86815939 -73.39684331 283.35272246 -73.54296875 281.8359375 C-76.97204869 249.12947724 -87.37541166 219.82835374 -105.1875 192.1875 C-111.73139449 181.98236681 -116.30304719 171.27829299 -119.8125 159.6875 C-120.00755127 159.04756104 -120.20260254 158.40762207 -120.40356445 157.74829102 C-129.18261472 126.85703209 -124.33490729 93.38724539 -109.609375 65.2265625 C-92.01151715 34.04589203 -64.85646867 14.02730185 -31.109375 3.41796875 C-20.81425565 0.63381942 -10.63021225 -0.01449964 0 0 Z " fill="#F1CE4D" transform="translate(257,89.625)"/>
<path d="M0 0 C48.18 0 96.36 0 146 0 C146 10.89 146 21.78 146 33 C97.82 33 49.64 33 0 33 C0 22.11 0 11.22 0 0 Z " fill="#F2CE4D" transform="translate(185,406)"/>
<path d="M0 0 C42.9 0 85.8 0 130 0 C124.92648666 15.22054001 114.96959044 27.0593907 101 35 C99.86691406 35.65742188 99.86691406 35.65742188 98.7109375 36.328125 C87.65357103 42.30702674 77.24826158 44.35630168 64.8125 44.4375 C63.81524902 44.4475708 62.81799805 44.4576416 61.79052734 44.46801758 C43.07525458 44.25025446 27.09825828 35.89052525 13.75 23.1875 C8.19615791 17.46562766 0 8.41612576 0 0 Z " fill="#EFCB4C" transform="translate(193,468)"/>
<path d="M0 0 C3.52344644 1.6586188 5.79901878 3.56657308 8.546875 6.3515625 C9.81337891 7.62773438 9.81337891 7.62773438 11.10546875 8.9296875 C12.41451172 10.26386719 12.41451172 10.26386719 13.75 11.625 C14.63816406 12.5221875 15.52632813 13.419375 16.44140625 14.34375 C18.63216969 16.55807004 20.81812763 18.77692435 23 21 C21.70949477 23.82779011 20.34597974 25.9140819 18.17431641 28.13208008 C17.60677643 28.71560745 17.03923645 29.29913483 16.45449829 29.90034485 C15.84302948 30.51717636 15.23156067 31.13400787 14.6015625 31.76953125 C13.97019379 32.40992844 13.33882507 33.05032562 12.68832397 33.71012878 C11.35452493 35.05840931 10.01791882 36.40391793 8.67871094 37.74682617 C6.62705621 39.81043182 4.59479077 41.89195356 2.5625 43.97460938 C1.2641728 45.28239464 -0.03526905 46.58907447 -1.3359375 47.89453125 C-1.94335785 48.52148392 -2.5507782 49.14843658 -3.17660522 49.79438782 C-4.91552734 51.51489258 -4.91552734 51.51489258 -8 54 C-13.95393656 53.32605455 -17.80837261 47.70339558 -21.8125 43.6875 C-22.70904297 42.81931641 -23.60558594 41.95113281 -24.52929688 41.05664062 C-25.37169922 40.21681641 -26.21410156 39.37699219 -27.08203125 38.51171875 C-27.85780518 37.74303467 -28.6335791 36.97435059 -29.43286133 36.18237305 C-31 34 -31 34 -30.77716064 32.06410217 C-29.89351127 29.71717095 -28.91130382 28.54840042 -27.13256836 26.79199219 C-26.53202133 26.19167175 -25.9314743 25.59135132 -25.31272888 24.97283936 C-24.66167679 24.33727112 -24.01062469 23.70170288 -23.33984375 23.046875 C-22.67537735 22.38665344 -22.01091095 21.72643188 -21.3263092 21.04620361 C-19.20364437 18.9403236 -17.07078395 16.84511672 -14.9375 14.75 C-13.49606066 13.32360768 -12.05529691 11.8965323 -10.61523438 10.46875 C-7.08461168 6.97119406 -3.54480947 3.48317435 0 0 Z " fill="#E2C048" transform="translate(399,53)"/>
<path d="M0 0 C2.82779011 1.29050523 4.9140819 2.65402026 7.13208008 4.82568359 C7.71560745 5.39322357 8.29913483 5.96076355 8.90034485 6.54550171 C9.51717636 7.15697052 10.13400787 7.76843933 10.76953125 8.3984375 C11.40992844 9.02980621 12.05032562 9.66117493 12.71012878 10.31167603 C14.05840931 11.64547507 15.40391793 12.98208118 16.74682617 14.32128906 C18.81043182 16.37294379 20.89195356 18.40520923 22.97460938 20.4375 C24.28239464 21.7358272 25.58907447 23.03526905 26.89453125 24.3359375 C27.52148392 24.94335785 28.14843658 25.5507782 28.79438782 26.17660522 C30.51489258 27.91552734 30.51489258 27.91552734 33 31 C32.32605455 36.95393656 26.70339558 40.80837261 22.6875 44.8125 C21.81931641 45.70904297 20.95113281 46.60558594 20.05664062 47.52929688 C18.7969043 48.79290039 18.7969043 48.79290039 17.51171875 50.08203125 C16.74303467 50.85780518 15.97435059 51.6335791 15.18237305 52.43286133 C13 54 13 54 11.06410217 53.77716064 C8.71717095 52.89351127 7.54840042 51.91130382 5.79199219 50.13256836 C5.19167175 49.53202133 4.59135132 48.9314743 3.97283936 48.31272888 C3.33727112 47.66167679 2.70170288 47.01062469 2.046875 46.33984375 C1.38665344 45.67537735 0.72643188 45.01091095 0.04620361 44.3263092 C-2.0596764 42.20364437 -4.15488328 40.07078395 -6.25 37.9375 C-7.67639232 36.49606066 -9.1034677 35.05529691 -10.53125 33.61523438 C-14.02880594 30.08461168 -17.51682565 26.54480947 -21 23 C-19.3413812 19.47655356 -17.43342692 17.20098122 -14.6484375 14.453125 C-13.79765625 13.60878906 -12.946875 12.76445313 -12.0703125 11.89453125 C-11.18085937 11.02183594 -10.29140625 10.14914063 -9.375 9.25 C-8.4778125 8.36183594 -7.580625 7.47367188 -6.65625 6.55859375 C-4.44192996 4.36783031 -2.22307565 2.18187237 0 0 Z " fill="#E2C048" transform="translate(110,53)"/>
<path d="M0 0 C15.18 0 30.36 0 46 0 C46 10.23 46 20.46 46 31 C30.82 31 15.64 31 0 31 C0 20.77 0 10.54 0 0 Z " fill="#EECB4C" transform="translate(429,204)"/>
<path d="M0 0 C15.18 0 30.36 0 46 0 C46 10.23 46 20.46 46 31 C30.82 31 15.64 31 0 31 C0 20.77 0 10.54 0 0 Z " fill="#EECB4C" transform="translate(36,204)"/>
<path d="M0 0 C10.23 0 20.46 0 31 0 C31 15.18 31 30.36 31 46 C20.77 46 10.54 46 0 46 C0 30.82 0 15.64 0 0 Z " fill="#EECB4C" transform="translate(240,0)"/>
</svg>
