<?xml version="1.0" standalone="no"?>
<!DOCTYPE svg PUBLIC "-//W3C//DTD SVG 20010904//EN"
 "http://www.w3.org/TR/2001/REC-SVG-20010904/DTD/svg10.dtd">
<svg version="1.0" xmlns="http://www.w3.org/2000/svg"
 width="512.000000pt" height="512.000000pt" viewBox="0 0 512.000000 512.000000"
 preserveAspectRatio="xMidYMid meet">

<g transform="translate(0.000000,512.000000) scale(0.100000,-0.100000)"
fill="#000000" stroke="none">
<path d="M423 5106 c-198 -48 -371 -227 -412 -424 -16 -75 -16 -4169 0 -4244
42 -203 224 -385 427 -427 37 -8 660 -11 2125 -11 2283 0 2135 -4 2261 62 91
48 195 156 239 248 19 41 40 99 46 128 16 75 16 4169 0 4244 -41 197 -215 377
-410 423 -56 13 -322 15 -2144 14 -1643 -1 -2091 -3 -2132 -13z m1107 -2546
l0 -1530 -280 0 -280 0 0 1530 0 1530 280 0 280 0 0 -1530z m1703 1504 c546
-104 943 -617 914 -1184 -27 -532 -422 -974 -952 -1067 -130 -22 -338 -13
-465 20 -443 116 -773 472 -851 917 -29 169 -10 404 48 563 155 434 524 721
988 771 64 6 233 -4 318 -20z"/>
</g>
</svg>
