<?xml version="1.0" encoding="UTF-8"?>
<svg version="1.1" xmlns="http://www.w3.org/2000/svg" width="512" height="512">
<path d="M0 0 C168.96 0 337.92 0 512 0 C512 168.96 512 337.92 512 512 C343.04 512 174.08 512 0 512 C0 343.04 0 174.08 0 0 Z " fill="#000000" transform="translate(0,0)"/>
<path d="M0 0 C19.41372235 16.17072943 33.2998818 36.8257727 39.99560547 61.27172852 C40.31400391 62.3790332 40.63240234 63.48633789 40.96044922 64.62719727 C48.19097557 94.11574943 41.51702047 125.63439711 25.99169922 151.26782227 C22.93612497 155.86613264 19.61067496 160.10368472 15.99560547 164.27172852 C15.33173828 165.0799707 14.66787109 165.88821289 13.98388672 166.72094727 C-3.5906935 187.41412212 -30.2308782 200.72629939 -57.00439453 204.27172852 C-89.82149948 206.75574246 -119.97591213 199.00973026 -145.37792969 177.68286133 C-170.14156877 156.19774666 -183.82311506 127.56944064 -186.16845703 94.99291992 C-186.73167045 84.41154786 -185.3455275 74.56837813 -183.00439453 64.27172852 C-182.78783203 63.21211914 -182.57126953 62.15250977 -182.34814453 61.06079102 C-180.62841615 53.26059444 -177.59578987 46.38409968 -174.00439453 39.27172852 C-173.54033203 38.33329102 -173.07626953 37.39485352 -172.59814453 36.42797852 C-158.04738066 8.2965017 -132.72535658 -10.85734481 -103.10986328 -20.68920898 C-68.13218387 -31.0339985 -28.29773921 -22.83587388 0 0 Z " fill="#FEFEFE" transform="translate(372.00439453125,127.728271484375)"/>
<path d="M0 0 C18.48 0 36.96 0 56 0 C56 100.98 56 201.96 56 306 C37.52 306 19.04 306 0 306 C0 205.02 0 104.04 0 0 Z " fill="#FDFDFD" transform="translate(97,103)"/>
</svg>
