<?xml version="1.0" encoding="UTF-8"?>
<svg version="1.1" xmlns="http://www.w3.org/2000/svg" width="512" height="512">
<path d="M0 0 C1.63309093 -0.00417981 3.26617895 -0.00966086 4.89926165 -0.01631981 C9.35827209 -0.03070842 13.81709665 -0.0265504 18.27611697 -0.019153 C23.0962963 -0.01440722 27.91643623 -0.02694366 32.73660278 -0.03717041 C42.16887874 -0.05433651 51.60108802 -0.05520291 61.03337554 -0.04995751 C68.70316225 -0.04591028 76.3729293 -0.04736593 84.04271507 -0.05270576 C85.68234457 -0.0538284 85.68234457 -0.0538284 87.35509789 -0.05497371 C89.57596551 -0.05650525 91.79683314 -0.05804359 94.01770075 -0.05958868 C114.82887802 -0.07330595 135.64001767 -0.06788159 156.45119407 -0.05640347 C175.47132249 -0.04647324 194.4913536 -0.05940951 213.51146702 -0.08333766 C233.06227401 -0.10774727 252.61303572 -0.11733186 272.16385764 -0.11068493 C283.13174659 -0.10719668 294.09956073 -0.10939867 305.06743813 -0.12693596 C314.40469083 -0.14168127 323.74181605 -0.142263 333.07906631 -0.12486505 C337.83843908 -0.11637164 342.59758433 -0.11416479 347.35694504 -0.1295166 C351.7225472 -0.14342339 356.08772823 -0.13852421 360.4533064 -0.11927737 C362.02386249 -0.11553531 363.59445281 -0.11838696 365.16497824 -0.12888902 C385.88154904 -0.25745587 403.33778018 5.91590528 418.62419128 20.38768005 C423.83434634 25.72855585 427.53892735 31.67153485 430.93669128 38.26268005 C431.42528625 39.19769348 431.42528625 39.19769348 431.92375183 40.15159607 C437.3747468 51.2761624 438.06296219 62.58622921 438.01187134 74.76348877 C438.01605115 76.3965797 438.02153219 78.02966772 438.02819115 79.66275042 C438.04257976 84.12176085 438.03842174 88.58058542 438.03102434 93.03960574 C438.02627856 97.85978507 438.038815 102.679925 438.04904175 107.50009155 C438.06620785 116.93236751 438.06707425 126.36457679 438.06182884 135.79686431 C438.05778162 143.46665102 438.05923727 151.13641807 438.0645771 158.80620384 C438.06532552 159.89929017 438.06607395 160.9923765 438.06684505 162.11858666 C438.06837658 164.33945428 438.06991493 166.56032191 438.07146002 168.78118952 C438.08517729 189.59236679 438.07975293 210.40350644 438.0682748 231.21468284 C438.05834458 250.23481126 438.07128085 269.25484237 438.095209 288.27495579 C438.11961861 307.82576278 438.1292032 327.37652449 438.12255627 346.92734641 C438.11906802 357.89523536 438.12127001 368.8630495 438.1388073 379.8309269 C438.15355261 389.1681796 438.15413434 398.50530482 438.13673639 407.84255508 C438.12824298 412.60192785 438.12603613 417.3610731 438.14138794 422.12043381 C438.15529472 426.48603597 438.15039554 430.851217 438.1311487 435.21679517 C438.12740664 436.78735126 438.1302583 438.35794158 438.14076035 439.92846701 C438.27271023 461.19016003 431.7270297 478.93864477 416.62419128 494.38768005 C400.94936709 508.34471529 383.76415663 512.86143599 363.24838257 512.77536011 C361.61529164 512.77953992 359.98220362 512.78502096 358.34912091 512.79167992 C353.89011048 512.80606853 349.43128592 512.80191051 344.9722656 512.79451311 C340.15208627 512.78976733 335.33194634 512.80230377 330.51177979 512.81253052 C321.07950383 512.82969662 311.64729455 512.83056302 302.21500703 512.82531761 C294.54522032 512.82127039 286.87545327 512.82272604 279.2056675 512.82806587 C277.566038 512.82918851 277.566038 512.82918851 275.89328468 512.83033382 C273.67241705 512.83186535 271.45154943 512.8334037 269.23068181 512.83494879 C248.41950455 512.84866606 227.6083649 512.8432417 206.7971885 512.83176357 C187.77706008 512.82183335 168.75702896 512.83476962 149.73691555 512.85869776 C130.18610856 512.88310738 110.63534685 512.89269197 91.08452493 512.88604504 C80.11663598 512.88255679 69.14882184 512.88475878 58.18094444 512.90229607 C48.84369174 512.91704138 39.50656652 512.91762311 30.16931625 512.90022516 C25.40994349 512.89173174 20.65079824 512.8895249 15.89143753 512.90487671 C11.52583537 512.91878349 7.16065434 512.91388431 2.79507617 512.89463747 C1.22452008 512.89089541 -0.34607024 512.89374707 -1.91659568 512.90424912 C-23.17828869 513.036199 -40.92677344 506.49051847 -56.37580872 491.38768005 C-70.33284395 475.71285586 -74.84956465 458.5276454 -74.76348877 438.01187134 C-74.76766858 436.37878041 -74.77314963 434.74569239 -74.77980858 433.11260968 C-74.79419719 428.65359925 -74.79003917 424.19477469 -74.78264177 419.73575437 C-74.77789599 414.91557504 -74.79043243 410.0954351 -74.80065918 405.27526855 C-74.81782528 395.8429926 -74.81869168 386.41078332 -74.81344628 376.9784958 C-74.80939905 369.30870909 -74.8108547 361.63894204 -74.81619453 353.96915627 C-74.81694296 352.87606994 -74.81769138 351.78298361 -74.81846248 350.65677345 C-74.81999402 348.43590582 -74.82153236 346.2150382 -74.82307745 343.99417058 C-74.83679472 323.18299331 -74.83137036 302.37185367 -74.81989224 281.56067727 C-74.80996201 262.54054885 -74.82289828 243.52051773 -74.84682643 224.50040432 C-74.87123604 204.94959733 -74.88082063 185.39883562 -74.8741737 165.8480137 C-74.87068545 154.88012475 -74.87288744 143.91231061 -74.89042473 132.94443321 C-74.90517004 123.60718051 -74.90575177 114.27005529 -74.88835382 104.93280502 C-74.87986041 100.17343226 -74.87765356 95.41428701 -74.89300537 90.6549263 C-74.90691216 86.28932414 -74.90201297 81.92414311 -74.88276614 77.55856494 C-74.87902408 75.98800885 -74.88187573 74.41741853 -74.89237779 72.84689309 C-75.02094464 52.1303223 -68.84758349 34.67409116 -54.37580872 19.38768005 C-49.03493292 14.17752499 -43.09195392 10.47294399 -36.50080872 7.07518005 C-35.87746643 6.74945007 -35.25412415 6.42372009 -34.6118927 6.08811951 C-23.48732637 0.63712453 -12.17725956 -0.05109085 0 0 Z " fill="#D50012" transform="translate(74.37580871582031,-0.3876800537109375)"/>
<path d="M0 0 C34.39896036 -1.22547062 65.87372116 8.20092677 91.44433594 31.80078125 C109.75610485 49.13461085 122.9649737 73.81645574 123.68652344 99.40625 C124.17803009 138.55664544 114.74353691 177.4510502 86.79589844 206.27734375 C71.24545818 221.74766581 49.03453524 231.57485325 27.04589844 231.52734375 C10.28042972 231.19760959 -4.04137425 227.42902915 -16.32128906 215.30859375 C-19.51660156 211.6258607 -19.51660156 211.6258607 -19.51660156 209.08984375 C-20.17660156 209.08984375 -20.83660156 209.08984375 -21.51660156 209.08984375 C-21.56268555 209.64381836 -21.60876953 210.19779297 -21.65625 210.76855469 C-22.17204682 216.18098261 -23.20512211 221.14207499 -24.76660156 226.33984375 C-26.73989526 233.13131083 -28.44307028 239.94544788 -30.01660156 246.83984375 C-36.43252553 274.34162856 -49.79718767 298.25419433 -67.51660156 320.08984375 C-68.83660156 319.75984375 -70.15660156 319.42984375 -71.51660156 319.08984375 C-73.13928255 307.64236537 -73.83585309 296.41898211 -73.77734375 284.85888672 C-73.76654918 282.3275594 -73.7773557 279.79693212 -73.79003906 277.265625 C-73.80505167 262.86343867 -71.55599861 249.56107326 -68.32910156 235.52734375 C-68.01989288 234.16895562 -67.71073041 232.81055696 -67.40161133 231.45214844 C-65.10191294 221.4001373 -62.61999929 211.39812198 -60.08129883 201.40380859 C-57.21751935 190.06340343 -54.68878326 178.65561421 -52.21435547 167.22485352 C-51.22532833 162.78115249 -50.14808301 158.3588941 -49.06396484 153.9375 C-48.09063951 148.87377714 -48.77083075 144.53409784 -50.26269531 139.64453125 C-54.99907455 123.73573591 -54.26415274 105.2302051 -46.82910156 90.33984375 C-41.72044791 81.60731756 -34.40704383 74.54570429 -24.57128906 71.484375 C-16.88370281 70.00824152 -10.49722087 70.74068658 -3.67285156 74.6171875 C2.52951572 78.85322457 5.63112593 84.97790974 7.48339844 92.08984375 C9.93583303 110.27254066 2.05095473 129.32329055 -3.39550781 146.33984375 C-9.63817443 164.80349808 -9.63817443 164.80349808 -6.51660156 183.52734375 C-2.39884203 190.5996539 3.60411662 195.6888482 11.48339844 198.08984375 C14.39207822 198.53720008 17.23107111 198.6150135 20.17089844 198.58984375 C20.96109375 198.58339844 21.75128906 198.57695312 22.56542969 198.5703125 C34.18555279 198.21073214 43.27740689 193.17416491 51.48339844 185.08984375 C59.27472361 176.47906368 64.06507958 166.71640269 68.48339844 156.08984375 C69.21042969 154.37087891 69.21042969 154.37087891 69.95214844 152.6171875 C79.3571756 127.64225255 82.16474185 94.50674913 71.24902344 69.671875 C68.5886546 64.2746223 65.35967168 59.67627392 61.48339844 55.08984375 C60.89042969 54.373125 60.29746094 53.65640625 59.68652344 52.91796875 C47.61266627 39.60576726 27.60050888 32.96443877 10.11181641 31.95263672 C-16.15088797 30.78832836 -40.47115565 37.19983183 -60.58691406 54.6875 C-76.50141516 69.73756441 -86.95313111 91.16539775 -87.75488281 113.12890625 C-88.07453645 129.35892181 -86.09896014 142.58536051 -75.70410156 155.65234375 C-73.61570471 158.56684696 -72.83711279 160.89183527 -73.09082031 164.57421875 C-76.02618885 181.91713009 -76.02618885 181.91713009 -81.51660156 186.08984375 C-90.18848269 186.62077525 -98.2781924 179.49115009 -104.51660156 174.08984375 C-110.6016084 167.07749854 -115.22501404 159.7576909 -118.51660156 151.08984375 C-119.06960937 149.63771484 -119.06960937 149.63771484 -119.63378906 148.15625 C-128.48199071 123.32315851 -126.30913442 95.60115 -115.37231445 71.76586914 C-114.4491729 69.85752404 -113.4944704 67.97069958 -112.51660156 66.08984375 C-112.19208008 65.46416504 -111.86755859 64.83848633 -111.53320312 64.19384766 C-97.14151067 37.13105715 -71.79861788 16.94582862 -42.87597656 7.0625 C-30.40044757 3.45039917 -17.66680604 0.31291347 -4.62695312 0.125 C-3.08428674 0.09930079 -1.54189815 0.05504642 0 0 Z " fill="#FEFDFD" transform="translate(256.5166015625,95.91015625)"/>
</svg>
