<?xml version="1.0" standalone="no"?>
<!DOCTYPE svg PUBLIC "-//W3C//DTD SVG 20010904//EN"
 "http://www.w3.org/TR/2001/REC-SVG-20010904/DTD/svg10.dtd">
<svg version="1.0" xmlns="http://www.w3.org/2000/svg"
 width="512.000000pt" height="512.000000pt" viewBox="0 0 512.000000 512.000000"
 preserveAspectRatio="xMidYMid meet">

<g transform="translate(0.000000,512.000000) scale(0.100000,-0.100000)"
fill="#000000" stroke="none">
<path d="M555 5104 c-77 -16 -190 -66 -259 -113 -97 -67 -195 -189 -243 -306
-55 -131 -53 -43 -53 -2125 0 -1715 2 -1929 16 -1998 19 -95 45 -158 99 -242
75 -116 164 -192 298 -255 146 -69 20 -65 2147 -65 1715 0 1929 2 1998 16 259
53 459 239 538 500 18 56 19 162 22 2009 2 1760 1 1958 -14 2030 -56 280 -266
492 -546 549 -69 14 -282 16 -2005 15 -1653 -1 -1938 -3 -1998 -15z m2260
-955 c169 -23 329 -78 471 -162 65 -38 119 -82 200 -162 157 -156 236 -292
286 -492 29 -115 31 -365 4 -518 -87 -487 -352 -827 -728 -936 -103 -30 -291
-37 -377 -15 -99 25 -189 74 -255 139 -32 32 -60 56 -61 55 -2 -2 -31 -112
-64 -246 -68 -269 -95 -349 -153 -466 -86 -170 -237 -390 -266 -384 -21 4 -28
44 -42 237 -11 145 -8 265 11 391 6 36 64 294 130 575 l121 509 -22 71 c-31
96 -38 283 -16 378 31 131 111 243 211 295 68 35 180 37 241 5 113 -60 156
-193 119 -371 -9 -45 -46 -180 -82 -300 -58 -190 -66 -227 -67 -302 -1 -102
18 -145 89 -208 64 -56 127 -76 229 -70 115 6 179 38 281 142 95 95 155 202
204 361 46 152 64 270 65 440 1 174 -11 233 -76 365 -124 256 -429 396 -782
360 -125 -13 -198 -32 -304 -81 -262 -121 -437 -351 -488 -641 -32 -185 -3
-349 86 -480 30 -44 50 -84 50 -101 0 -50 -43 -200 -63 -220 -25 -25 -63 -18
-136 26 -308 185 -404 697 -207 1112 180 381 549 636 1001 694 101 12 301 13
390 0z"/>
</g>
</svg>
