<?xml version="1.0" encoding="UTF-8"?>
<svg version="1.1" xmlns="http://www.w3.org/2000/svg" width="512" height="512">
<path d="M0 0 C1.63309093 -0.00417981 3.26617895 -0.00966086 4.89926165 -0.01631981 C9.35827209 -0.03070842 13.81709665 -0.0265504 18.27611697 -0.019153 C23.0962963 -0.01440722 27.91643623 -0.02694366 32.73660278 -0.03717041 C42.16887874 -0.05433651 51.60108802 -0.05520291 61.03337554 -0.04995751 C68.70316225 -0.04591028 76.3729293 -0.04736593 84.04271507 -0.05270576 C85.68234457 -0.0538284 85.68234457 -0.0538284 87.35509789 -0.05497371 C89.57596551 -0.05650525 91.79683314 -0.05804359 94.01770075 -0.05958868 C114.82887802 -0.07330595 135.64001767 -0.06788159 156.45119407 -0.05640347 C175.47132249 -0.04647324 194.4913536 -0.05940951 213.51146702 -0.08333766 C233.06227401 -0.10774727 252.61303572 -0.11733186 272.16385764 -0.11068493 C283.13174659 -0.10719668 294.09956073 -0.10939867 305.06743813 -0.12693596 C314.40469083 -0.14168127 323.74181605 -0.142263 333.07906631 -0.12486505 C337.83843908 -0.11637164 342.59758433 -0.11416479 347.35694504 -0.1295166 C351.7225472 -0.14342339 356.08772823 -0.13852421 360.4533064 -0.11927737 C362.02386249 -0.11553531 363.59445281 -0.11838696 365.16497824 -0.12888902 C385.88154904 -0.25745587 403.33778018 5.91590528 418.62419128 20.38768005 C423.83434634 25.72855585 427.53892735 31.67153485 430.93669128 38.26268005 C431.42528625 39.19769348 431.42528625 39.19769348 431.92375183 40.15159607 C437.3747468 51.2761624 438.06296219 62.58622921 438.01187134 74.76348877 C438.01605115 76.3965797 438.02153219 78.02966772 438.02819115 79.66275042 C438.04257976 84.12176085 438.03842174 88.58058542 438.03102434 93.03960574 C438.02627856 97.85978507 438.038815 102.679925 438.04904175 107.50009155 C438.06620785 116.93236751 438.06707425 126.36457679 438.06182884 135.79686431 C438.05778162 143.46665102 438.05923727 151.13641807 438.0645771 158.80620384 C438.06532552 159.89929017 438.06607395 160.9923765 438.06684505 162.11858666 C438.06837658 164.33945428 438.06991493 166.56032191 438.07146002 168.78118952 C438.08517729 189.59236679 438.07975293 210.40350644 438.0682748 231.21468284 C438.05834458 250.23481126 438.07128085 269.25484237 438.095209 288.27495579 C438.11961861 307.82576278 438.1292032 327.37652449 438.12255627 346.92734641 C438.11906802 357.89523536 438.12127001 368.8630495 438.1388073 379.8309269 C438.15355261 389.1681796 438.15413434 398.50530482 438.13673639 407.84255508 C438.12824298 412.60192785 438.12603613 417.3610731 438.14138794 422.12043381 C438.15529472 426.48603597 438.15039554 430.851217 438.1311487 435.21679517 C438.12740664 436.78735126 438.1302583 438.35794158 438.14076035 439.92846701 C438.27271023 461.19016003 431.7270297 478.93864477 416.62419128 494.38768005 C400.94936709 508.34471529 383.76415663 512.86143599 363.24838257 512.77536011 C361.61529164 512.77953992 359.98220362 512.78502096 358.34912091 512.79167992 C353.89011048 512.80606853 349.43128592 512.80191051 344.9722656 512.79451311 C340.15208627 512.78976733 335.33194634 512.80230377 330.51177979 512.81253052 C321.07950383 512.82969662 311.64729455 512.83056302 302.21500703 512.82531761 C294.54522032 512.82127039 286.87545327 512.82272604 279.2056675 512.82806587 C277.566038 512.82918851 277.566038 512.82918851 275.89328468 512.83033382 C273.67241705 512.83186535 271.45154943 512.8334037 269.23068181 512.83494879 C248.41950455 512.84866606 227.6083649 512.8432417 206.7971885 512.83176357 C187.77706008 512.82183335 168.75702896 512.83476962 149.73691555 512.85869776 C130.18610856 512.88310738 110.63534685 512.89269197 91.08452493 512.88604504 C80.11663598 512.88255679 69.14882184 512.88475878 58.18094444 512.90229607 C48.84369174 512.91704138 39.50656652 512.91762311 30.16931625 512.90022516 C25.40994349 512.89173174 20.65079824 512.8895249 15.89143753 512.90487671 C11.52583537 512.91878349 7.16065434 512.91388431 2.79507617 512.89463747 C1.22452008 512.89089541 -0.34607024 512.89374707 -1.91659568 512.90424912 C-23.17828869 513.036199 -40.92677344 506.49051847 -56.37580872 491.38768005 C-70.33284395 475.71285586 -74.84956465 458.5276454 -74.76348877 438.01187134 C-74.76766858 436.37878041 -74.77314963 434.74569239 -74.77980858 433.11260968 C-74.79419719 428.65359925 -74.79003917 424.19477469 -74.78264177 419.73575437 C-74.77789599 414.91557504 -74.79043243 410.0954351 -74.80065918 405.27526855 C-74.81782528 395.8429926 -74.81869168 386.41078332 -74.81344628 376.9784958 C-74.80939905 369.30870909 -74.8108547 361.63894204 -74.81619453 353.96915627 C-74.81694296 352.87606994 -74.81769138 351.78298361 -74.81846248 350.65677345 C-74.81999402 348.43590582 -74.82153236 346.2150382 -74.82307745 343.99417058 C-74.83679472 323.18299331 -74.83137036 302.37185367 -74.81989224 281.56067727 C-74.80996201 262.54054885 -74.82289828 243.52051773 -74.84682643 224.50040432 C-74.87123604 204.94959733 -74.88082063 185.39883562 -74.8741737 165.8480137 C-74.87068545 154.88012475 -74.87288744 143.91231061 -74.89042473 132.94443321 C-74.90517004 123.60718051 -74.90575177 114.27005529 -74.88835382 104.93280502 C-74.87986041 100.17343226 -74.87765356 95.41428701 -74.89300537 90.6549263 C-74.90691216 86.28932414 -74.90201297 81.92414311 -74.88276614 77.55856494 C-74.87902408 75.98800885 -74.88187573 74.41741853 -74.89237779 72.84689309 C-75.02094464 52.1303223 -68.84758349 34.67409116 -54.37580872 19.38768005 C-49.03493292 14.17752499 -43.09195392 10.47294399 -36.50080872 7.07518005 C-35.87746643 6.74945007 -35.25412415 6.42372009 -34.6118927 6.08811951 C-23.48732637 0.63712453 -12.17725956 -0.05109085 0 0 Z " fill="#1C8ADB" transform="translate(74.37580871582031,-0.3876800537109375)"/>
<path d="M0 0 C3.11679901 2.40253257 4.61578969 3.64841387 6 7.3125 C6.41769304 14.59332184 5.18480599 20.89124553 3.4375 27.9375 C2.88184029 30.25888208 2.32719557 32.5805073 1.7734375 34.90234375 C1.48178711 36.11390137 1.19013672 37.32545898 0.88964844 38.57373047 C-0.60853356 44.86987732 -2.02038916 51.18520419 -3.4375 57.5 C-3.73305835 58.81164479 -4.02879514 60.12324938 -4.32470703 61.43481445 C-5.79397203 67.94770583 -7.25804368 74.46174561 -8.71875 80.9765625 C-11.59363959 93.77857511 -14.5190046 106.56455819 -17.54788208 119.33087158 C-20.41217207 131.40393118 -23.1524755 143.49038179 -25.71337891 155.63232422 C-28.00801793 166.4683761 -30.46833735 177.26378447 -32.95996094 188.0559082 C-33.30023796 189.53073686 -33.6404073 191.00559037 -33.98046875 192.48046875 C-34.14866119 193.20992203 -34.31685364 193.93937531 -34.49014282 194.69093323 C-35.66936455 199.82452293 -36.8061707 204.9663981 -37.92578125 210.11328125 C-38.38706375 212.21701423 -38.84898878 214.3206052 -39.31106567 216.42416382 C-39.73619295 218.37416881 -40.15134695 220.32633982 -40.56616211 222.27856445 C-44.59970067 240.60639755 -44.59970067 240.60639755 -51 245.3125 C-55.43642821 247.28424587 -59.18263471 247.95481537 -64 247.3125 C-71.45131154 243.53421603 -78.31492952 238.47222951 -85.1875 233.75 C-86.81385939 232.63803556 -88.44022976 231.52608704 -90.06698608 230.41470337 C-91.21712461 229.62886601 -92.3670437 228.84270741 -93.51675415 228.0562439 C-98.02461574 224.97382975 -102.54328054 221.90762016 -107.06640625 218.84765625 C-107.74724777 218.38701279 -108.42808929 217.92636932 -109.12956238 217.45176697 C-111.81841764 215.63287591 -114.5074971 213.81431759 -117.19711304 211.99655151 C-125.83670436 206.1566035 -134.43877553 200.26688375 -143 194.3125 C-151.22403868 198.22629116 -157.52314104 205.77796991 -163.84765625 212.19140625 C-166.46924442 214.77493144 -169.22653632 217.16060076 -172.0234375 219.55078125 C-174.17637467 221.46970351 -176.17689772 223.49542012 -178.1875 225.5625 C-183.46646173 230.83125097 -186.85041842 232.60842252 -194.3046875 233.00390625 C-198.61151052 231.89911252 -201.27886144 229.71510722 -204 226.3125 C-206.40554348 221.22356227 -208.0802813 215.93615354 -209.79296875 210.58203125 C-210.30946219 209.02445466 -210.82799745 207.46755381 -211.34846497 205.91130066 C-212.70977817 201.82344619 -214.04430975 197.72734429 -215.37298584 193.62878418 C-216.71970951 189.4890091 -218.08985004 185.35701575 -219.45898438 181.22460938 C-221.24039989 175.84526872 -223.01313039 170.46333412 -224.76942921 165.07573986 C-225.83530726 161.81766176 -226.91860299 158.56545947 -228 155.3125 C-228.36179352 154.19177094 -228.72358704 153.07104187 -229.09634399 151.91635132 C-229.43104706 150.92261505 -229.76575012 149.92887878 -230.1105957 148.9050293 C-230.39111282 148.05377975 -230.67162994 147.20253021 -230.96064758 146.32548523 C-232.20210323 143.92107278 -233.12145899 143.3657476 -235.625 142.4375 C-237.41169556 142.03948814 -239.20451426 141.6687659 -241 141.3125 C-242.98313638 140.76241816 -244.96593739 140.21092077 -246.94384766 139.64233398 C-250.95214354 138.49480118 -254.97769366 137.40970131 -259 136.3125 C-260.7617232 135.83074544 -262.52344187 135.3489743 -264.28515625 134.8671875 C-266.10674722 134.36970518 -267.92836209 133.87231039 -269.75 133.375 C-270.66104492 133.1260498 -271.57208984 132.87709961 -272.51074219 132.62060547 C-277.35098284 131.30000078 -282.19427332 129.99236447 -287.04296875 128.703125 C-288.03006836 128.43878662 -289.01716797 128.17444824 -290.03417969 127.90209961 C-291.91519932 127.39862791 -293.79730327 126.89918303 -295.68066406 126.40454102 C-310.43707388 122.44073293 -310.43707388 122.44073293 -314 116.3125 C-314.77690184 112.25534594 -314.31745547 110.78495575 -312.00390625 107.34179688 C-308.74037682 103.60611931 -304.98856225 102.32768662 -300.375 100.78125 C-299.50578415 100.47260513 -298.6365683 100.16396027 -297.74101257 99.84596252 C-294.83308449 98.81759957 -291.91674419 97.81555615 -289 96.8125 C-286.91440749 96.07941775 -284.82954477 95.34425647 -282.74536133 94.60717773 C-278.23337133 93.01305836 -273.71842429 91.42770643 -269.20166016 89.84716797 C-261.81063944 87.25387831 -254.44010975 84.60509885 -247.07421875 81.94140625 C-246.13223287 81.60081617 -246.13223287 81.60081617 -245.17121696 81.25334549 C-242.61376895 80.32849598 -240.05642927 79.40334798 -237.49926281 78.47772026 C-231.00021414 76.12531645 -224.49824354 73.78104203 -217.99587822 71.43782425 C-216.06061651 70.74041788 -214.12540241 70.04287954 -212.19020081 69.3453064 C-190.792526 61.63242876 -169.39084775 53.93067007 -147.98913574 46.22900391 C-140.88850766 43.67373272 -133.78795245 41.11825917 -126.6875 38.5625 C-125.17817902 38.01923569 -125.17817902 38.01923569 -123.6383667 37.46499634 C-101.64013184 29.54648228 -79.64556395 21.61775269 -57.65473938 13.67868042 C-55.25606112 12.81401606 -52.85656687 11.95161168 -50.45622253 11.09158325 C-44.62459568 8.9994403 -38.81196578 6.87077523 -33.02392578 4.66064453 C-31.90433975 4.23969009 -30.78475372 3.81873566 -29.63124084 3.38502502 C-27.54265519 2.59843826 -25.45911697 1.79824023 -23.38230896 0.98106384 C-15.89647 -1.81434511 -7.48064757 -3.86165778 0 0 Z " fill="#FDFEFE" transform="translate(410,133.6875)"/>
<path d="M0 0 C0.8125 1.6875 0.8125 1.6875 1 4 C-2.42785728 7.77191731 -6.28569719 11.04487129 -10.1875 14.3125 C-10.75774902 14.79251465 -11.32799805 15.2725293 -11.91552734 15.76708984 C-16.07480645 19.25585544 -20.28974871 22.6692514 -24.54296875 26.04296875 C-29.0678414 29.64704061 -33.52825366 33.33038895 -38 37 C-45.01385432 42.74923513 -52.04507592 48.47666198 -59.08544922 54.19335938 C-64.7349426 58.7818077 -70.37049405 63.38705127 -76 68 C-77.83321648 69.50014281 -79.66655146 71.00014082 -81.5 72.5 C-82.4075 73.2425 -83.315 73.985 -84.25 74.75 C-94.33333333 83 -104.41666667 91.25 -114.5 99.5 C-115.40234375 100.23863281 -116.3046875 100.97726562 -117.234375 101.73828125 C-119.1184081 103.27903713 -121.00388412 104.8180299 -122.890625 106.35546875 C-123.83421875 107.12503906 -124.7778125 107.89460938 -125.75 108.6875 C-127.01070312 109.71423828 -127.01070312 109.71423828 -128.296875 110.76171875 C-129.18890625 111.50035156 -130.0809375 112.23898437 -131 113 C-131.57221283 113.38761002 -132.14442566 113.77522003 -132.73397827 114.17457581 C-136.51389076 116.93078436 -138.41218279 119.01149443 -139.23779297 123.68847656 C-139.43777925 125.50263035 -139.60429145 127.32069831 -139.7421875 129.140625 C-139.84089142 130.10401794 -139.93959534 131.06741089 -140.04129028 132.05999756 C-140.34887327 135.12130332 -140.61303962 138.18448575 -140.875 141.25 C-141.16794021 144.32827341 -141.46956492 147.4055925 -141.77297974 150.48284912 C-141.95813962 152.39406176 -142.13536151 154.30606316 -142.30392456 156.21881104 C-142.38135895 157.08020691 -142.45879333 157.94160278 -142.53857422 158.82910156 C-142.60406464 159.58821838 -142.66955505 160.34733521 -142.73703003 161.12945557 C-143 163 -143 163 -144 165 C-144.99 164.67 -145.98 164.34 -147 164 C-148.15800476 161.52839661 -148.15800476 161.52839661 -149.26831055 158.19848633 C-149.68851974 156.95662064 -150.10872894 155.71475494 -150.54167175 154.43525696 C-150.99054102 153.06768571 -151.43887685 151.69993928 -151.88671875 150.33203125 C-152.35246733 148.93509541 -152.81901591 147.53842607 -153.28633118 146.14201355 C-154.26469472 143.20969588 -155.23460976 140.27475706 -156.19848633 137.33764648 C-157.43171426 133.58138142 -158.68338732 129.83159122 -159.94125652 126.08351612 C-160.90801348 123.19719466 -161.86586585 120.30797974 -162.82099342 117.41779137 C-163.27900654 116.0347445 -163.73951014 114.65251974 -164.20258141 113.27115822 C-164.85056427 111.33306415 -165.48669975 109.39146116 -166.11987305 107.44848633 C-166.48388718 106.34563797 -166.84790131 105.24278961 -167.22294617 104.10652161 C-168.0234392 100.90629427 -168.2677559 98.28376248 -168 95 C-165.5106919 91.76764713 -162.53444137 89.97516472 -158.984375 88.0390625 C-157.9929248 87.49241943 -157.00147461 86.94577637 -155.97998047 86.38256836 C-154.91408691 85.8025708 -153.84819336 85.22257324 -152.75 84.625 C-150.4755423 83.37033722 -148.20212992 82.11377792 -145.9296875 80.85546875 C-145.35078766 80.53544388 -144.77188782 80.21541901 -144.17544556 79.88569641 C-138.35511096 76.66018701 -132.61151488 73.30910989 -126.875 69.9375 C-119.16169599 65.41198447 -111.4188399 60.94791796 -103.625 56.5625 C-95.49228486 51.98606332 -87.39114046 47.35875241 -79.3125 42.6875 C-70.11802473 37.37130883 -60.91064478 32.07873038 -51.6875 26.8125 C-51.10094635 26.47754517 -50.5143927 26.14259033 -49.9100647 25.79748535 C-44.91422654 22.94479462 -39.91740164 20.09383401 -34.92041016 17.24316406 C-33.00771513 16.15192457 -31.09519077 15.06038589 -29.18286133 13.96850586 C-27.42956389 12.96796639 -25.67552545 11.96872398 -23.9206543 10.97094727 C-20.32702188 8.92383275 -16.74767295 6.86412343 -13.21875 4.70703125 C-12.1565625 4.06121094 -11.094375 3.41539062 -10 2.75 C-9.13375 2.20859375 -8.2675 1.6671875 -7.375 1.109375 C-4.71471357 -0.13325879 -2.90156988 -0.22798049 0 0 Z " fill="#1E8BDB" transform="translate(359,176)"/>
</svg>
