<?xml version="1.0" standalone="no"?>
<!DOCTYPE svg PUBLIC "-//W3C//DTD SVG 20010904//EN"
 "http://www.w3.org/TR/2001/REC-SVG-20010904/DTD/svg10.dtd">
<svg version="1.0" xmlns="http://www.w3.org/2000/svg"
 width="512.000000pt" height="512.000000pt" viewBox="0 0 512.000000 512.000000"
 preserveAspectRatio="xMidYMid meet">

<g transform="translate(0.000000,512.000000) scale(0.100000,-0.100000)"
fill="#000000" stroke="none">
<path d="M613 5109 c-258 -30 -490 -220 -572 -466 -12 -34 -26 -106 -31 -160
-7 -66 -10 -723 -8 -1993 3 -1771 5 -1899 21 -1960 67 -248 265 -444 512 -507
66 -17 179 -18 2025 -18 1846 0 1959 1 2025 18 250 64 448 262 512 512 17 66
18 179 18 2025 0 1845 -1 1959 -18 2025 -64 249 -257 444 -507 512 -61 16
-187 17 -1985 19 -1056 1 -1952 -2 -1992 -7z m3460 -1313 c52 -21 87 -70 87
-121 0 -52 -495 -2246 -515 -2286 -26 -50 -73 -74 -141 -74 -69 0 -29 -24
-599 363 l-250 169 -195 -184 c-107 -102 -207 -191 -222 -199 -51 -27 -119
-13 -160 33 -10 11 -81 206 -159 434 -77 228 -142 415 -143 416 -1 1 -175 49
-386 107 -427 117 -430 119 -430 196 0 26 7 47 23 64 17 20 334 138 1507 560
817 294 1500 535 1518 536 18 0 47 -6 65 -14z"/>
<path d="M2745 2895 c-515 -295 -815 -473 -824 -488 -13 -21 -5 -51 98 -360
62 -185 116 -337 120 -337 4 0 20 101 35 225 15 124 29 232 32 239 3 7 315
267 695 577 544 444 689 568 687 584 -2 11 -10 21 -18 22 -8 2 -379 -206 -825
-462z"/>
</g>
</svg>
