<?xml version="1.0" standalone="no"?>
<!DOCTYPE svg PUBLIC "-//W3C//DTD SVG 20010904//EN"
 "http://www.w3.org/TR/2001/REC-SVG-20010904/DTD/svg10.dtd">
<svg version="1.0" xmlns="http://www.w3.org/2000/svg"
 width="512.000000pt" height="512.000000pt" viewBox="0 0 512.000000 512.000000"
 preserveAspectRatio="xMidYMid meet">

<g transform="translate(0.000000,512.000000) scale(0.100000,-0.100000)"
fill="#000000" stroke="none">
<path d="M828 5109 c-138 -20 -305 -84 -413 -159 -68 -47 -169 -144 -222 -214
-62 -82 -137 -242 -165 -351 l-23 -90 0 -1735 0 -1735 23 -90 c28 -109 103
-269 165 -351 53 -70 154 -167 222 -214 75 -51 224 -118 321 -142 l89 -23
1735 0 1735 0 89 23 c224 57 424 192 559 379 55 75 123 226 149 329 l23 89 0
1735 0 1735 -23 89 c-24 97 -91 246 -142 321 -47 68 -144 169 -214 222 -80 60
-239 136 -346 165 l-85 23 -1710 1 c-940 1 -1736 -2 -1767 -7z m2382 -1559
c146 -6 303 -15 350 -21 238 -29 343 -167 382 -504 17 -148 17 -782 0 -930
-39 -337 -144 -475 -382 -504 -328 -40 -1668 -40 -2000 -1 -237 29 -341 163
-382 495 -17 135 -17 815 0 950 42 335 146 468 387 495 238 27 1168 38 1645
20z"/>
<path d="M2280 2600 l0 -398 108 56 c59 32 228 120 375 197 147 77 267 142
267 145 0 3 -120 68 -267 145 -147 77 -316 165 -375 197 l-108 56 0 -398z"/>
</g>
</svg>
