<?xml version="1.0" encoding="UTF-8"?>
<svg version="1.1" xmlns="http://www.w3.org/2000/svg" width="512" height="512">
<path d="M0 0 C4.22367701 0.00913286 8.44729031 -0.00495962 12.67095423 -0.01591969 C20.92346615 -0.03362248 29.17583181 -0.0299019 37.42834926 -0.01826912 C44.14071977 -0.00920243 50.85304955 -0.00802473 57.56542444 -0.01236439 C58.52403854 -0.01297732 59.48265263 -0.01359025 60.47031564 -0.01422176 C62.41826814 -0.01550077 64.36622063 -0.01679763 66.3141731 -0.01811212 C84.54164526 -0.02949378 102.76903669 -0.01644221 120.9964956 0.00508934 C136.60598892 0.02295812 152.21536321 0.01985333 167.82485437 0.0014143 C185.99110638 -0.02003519 204.1572878 -0.02839537 222.3235507 -0.01613665 C224.26397752 -0.01486257 226.20440434 -0.01360508 228.14483118 -0.01236439 C229.57658639 -0.01143873 229.57658639 -0.01143873 231.03726596 -0.01049438 C237.73457639 -0.0070537 244.4318417 -0.01284206 251.12914515 -0.0222826 C259.30095909 -0.03354941 267.47261953 -0.03036477 275.64441609 -0.00915962 C279.80662378 0.0012882 283.96857637 0.00558096 288.13078165 -0.00775623 C319.10401222 -0.09872786 346.96174427 3.99185756 369.95278406 26.58539867 C370.92249218 27.56232702 371.89011927 28.54132782 372.85512781 29.52289867 C373.99788172 30.66758617 373.99788172 30.66758617 375.16372156 31.83539867 C389.0900318 46.60325982 398.95436351 68.19512314 398.98934889 88.64854431 C398.99380673 89.86222838 398.99826458 91.07591245 399.00285751 92.32637483 C399.00276822 93.66473537 399.0025784 95.0030959 399.00229883 96.34145641 C399.00560054 97.76995051 399.00932675 99.19844367 399.01344031 100.62693566 C399.02343388 104.54830824 399.02717285 108.46966552 399.02982962 112.39104903 C399.03374063 116.62239867 399.04331853 120.85373629 399.05204248 125.08507824 C399.07178624 135.30299188 399.08187127 145.52090647 399.09077027 155.73883441 C399.09515732 160.5557388 399.10052312 165.3726421 399.10575914 170.18954563 C399.12277069 186.21155379 399.13726297 202.23356128 399.14450788 218.25557709 C399.14641765 222.41149744 399.148338 226.56741779 399.15029383 230.72333813 C399.15077757 231.75621978 399.15126131 232.78910144 399.15175971 233.85328253 C399.16005292 250.57035475 399.18537819 267.28735525 399.2178745 284.00439618 C399.25099694 301.18424817 399.2689614 318.36406379 399.27215213 335.54394788 C399.27431262 345.18290988 399.28299339 354.82176734 399.3086133 364.46069813 C399.33039137 372.67301412 399.33833599 380.88520019 399.32864652 389.09754179 C399.32412208 393.28196674 399.32587877 397.46612403 399.34540796 401.65051174 C399.49290878 435.11726441 394.05231157 461.73409534 369.98012781 486.71039867 C354.5695749 501.70002602 332.53269267 512.61982558 310.72948217 512.65711975 C309.5157981 512.66157759 308.30211403 512.66603544 307.05165166 512.67062837 C305.71329112 512.67053909 304.37493058 512.67034926 303.03657007 512.67006969 C301.60807598 512.6733714 300.17958281 512.67709762 298.75109082 512.68121117 C294.82971824 512.69120474 290.90836097 512.69494371 286.98697746 512.69760048 C282.75562781 512.7015115 278.52429019 512.71108939 274.29294825 512.71981335 C264.07503461 512.73955711 253.85712001 512.74964213 243.63919207 512.75854114 C238.82228768 512.76292818 234.00538438 512.76829398 229.18848085 512.77353001 C213.16647269 512.79054156 197.1444652 512.80503383 181.1224494 512.81227875 C176.96652904 512.81418851 172.81060869 512.81610886 168.65468836 512.81806469 C167.6218067 512.81854843 166.58892505 512.81903217 165.52474395 512.81953057 C148.80767173 512.82782378 132.09067124 512.85314905 115.37363031 512.88564537 C98.19377831 512.9187678 81.01396269 512.93673226 63.83407861 512.93992299 C54.19511661 512.94208348 44.55625914 512.95076425 34.91732836 512.97638416 C26.70501236 512.99816224 18.4928263 513.00610686 10.2804847 512.99641738 C6.09605974 512.99189294 1.91190245 512.99364964 -2.27248526 513.01317883 C-34.55972485 513.15561362 -34.55972485 513.15561362 -48.14487219 508.52289867 C-48.99612834 508.23734773 -49.84738449 507.95179678 -50.72443628 507.65759277 C-74.73665669 498.78683812 -93.36088082 480.84290007 -104.84018469 458.17524242 C-113.61826792 438.96491456 -113.73409897 420.07736828 -113.66777086 399.37802649 C-113.658638 395.15434947 -113.67273048 390.93073617 -113.68369055 386.70707226 C-113.70139335 378.45456034 -113.69767276 370.20219467 -113.68603998 361.94967723 C-113.67697329 355.23730672 -113.67579559 348.52497693 -113.68013525 341.81260204 C-113.68074818 340.85398795 -113.68136111 339.89537386 -113.68199262 338.90771085 C-113.68327164 336.95975835 -113.68456849 335.01180586 -113.68588299 333.06385338 C-113.69726465 314.83638123 -113.68421308 296.60898979 -113.66268152 278.38153088 C-113.64481275 262.77203757 -113.64791753 247.16266328 -113.66635656 231.55317211 C-113.68780605 213.38692011 -113.69616623 195.22073869 -113.68390751 177.05447578 C-113.68263343 175.11404897 -113.68137595 173.17362214 -113.68013525 171.2331953 C-113.67951815 170.27869183 -113.67890105 169.32418835 -113.67826524 168.34076053 C-113.67482456 161.6434501 -113.68061292 154.94618478 -113.69005346 148.24888134 C-113.70132027 140.07706739 -113.69813563 131.90540696 -113.67693049 123.73361039 C-113.66648266 119.5714027 -113.6621899 115.40945012 -113.6755271 111.24724483 C-113.76996108 79.13574283 -113.76996108 79.13574283 -109.14487219 65.52289867 C-108.85938261 64.6714175 -108.57389303 63.81993633 -108.27975225 62.9426527 C-99.51784374 39.23787841 -81.36814864 19.46485747 -58.49863195 8.73993969 C-55.07546106 7.1751219 -51.71248465 5.71906861 -48.14487219 4.52289867 C-47.15372915 4.18614872 -46.16258612 3.84939877 -45.14140844 3.50244427 C-30.38188385 -0.69998937 -15.20614028 -0.04872593 0 0 Z " fill="#E21A20" transform="translate(113.14487218856812,-0.5228986740112305)"/>
<path d="M0 0 C2.15248871 0.06250601 4.30503687 0.12243845 6.45761108 0.1819191 C10.49740989 0.2948768 14.53654007 0.42369544 18.57577515 0.55530167 C19.75353012 0.58874176 20.9312851 0.62218185 22.14472961 0.65663528 C37.54038027 1.20198155 52.71457242 1.99283139 64.2359314 13.18811417 C76.25105835 27.57956623 77.90796193 47.28073373 78.78671265 65.31702042 C78.82855179 66.17413116 78.87039093 67.03124191 78.91349792 67.91432571 C79.38114917 78.31547793 79.4348811 88.71550418 79.4234314 99.12561417 C79.42282715 100.14737747 79.4222229 101.16914078 79.42160034 102.22186661 C79.31445783 169.24473726 79.31445783 169.24473726 62.84921265 186.73108292 C50.90855217 197.51526296 34.58637334 197.2176477 19.38827515 197.72327042 C18.13549774 197.76638351 16.88272034 197.80949661 15.59197998 197.85391617 C11.45263732 197.9924241 7.31312487 198.12314494 3.1734314 198.25061417 C2.10531534 198.28394033 2.10531534 198.28394033 1.01562119 198.31793976 C-22.696832 199.0543214 -46.39778596 199.38277672 -70.12147141 199.37614441 C-72.41087784 199.37562343 -74.70027904 199.37677212 -76.98968506 199.37808609 C-171.35734653 199.39786934 -171.35734653 199.39786934 -185.7640686 185.18811417 C-204.09889256 163.53828855 -200.95130833 127.25572218 -200.94937134 100.7808876 C-200.95155713 97.45556175 -200.96980113 94.13056935 -200.98867798 90.80530167 C-201.14832856 30.40751031 -201.14832856 30.40751031 -185.62734985 12.75842667 C-177.71231171 5.21634844 -169.20906429 2.27837538 -158.4750061 1.68811417 C-157.75346344 1.64778061 -157.03192078 1.60744705 -156.28851318 1.56589127 C-153.90561043 1.43479408 -151.52242827 1.31061172 -149.1390686 1.18811417 C-148.30754272 1.14487015 -147.47601685 1.10162613 -146.61929321 1.05707169 C-140.66834614 0.74993427 -134.71660379 0.46265904 -128.7640686 0.18811417 C-128.06608154 0.15568619 -127.36809448 0.12325821 -126.6489563 0.08984756 C-84.48896435 -1.83706406 -42.17411727 -1.23573152 0 0 Z " fill="#FEFEFE" transform="translate(316.7640686035156,156.81188583374023)"/>
<path d="M0 0 C10.11157702 5.05578851 20.20886596 10.1208362 30.25 15.3125 C30.86775299 15.63160339 31.48550598 15.95070679 32.12197876 16.27947998 C40.98152199 20.85994923 49.78180817 25.53593255 58.48339844 30.41137695 C63.90808887 33.44442638 69.4218031 36.25985855 75 39 C75 39.66 75 40.32 75 41 C73.8550708 41.5873291 73.8550708 41.5873291 72.68701172 42.18652344 C59.05022989 49.18991342 45.44807161 56.23151862 32.01635742 63.62304688 C25.1152063 67.41297576 18.16533458 71.10325717 11.1875 74.75 C10.18348145 75.2761792 9.17946289 75.8023584 8.14501953 76.34448242 C7.22446777 76.82377197 6.30391602 77.30306152 5.35546875 77.796875 C4.12799927 78.43641113 4.12799927 78.43641113 2.87573242 79.08886719 C1 80 1 80 0 80 C0 53.6 0 27.2 0 0 Z " fill="#E21B21" transform="translate(228,212)"/>
</svg>
